<?xml version="1.0" encoding="UTF-8" standalone="no"?>
<svg
   width="40.8941mm"
   height="41.8678mm"
   viewBox="0 0 1932 1978"
   version="1.1"
   id="svg3"
   xmlns="http://www.w3.org/2000/svg"
   xmlns:svg="http://www.w3.org/2000/svg">
  <defs
     id="defs7" />
  <path
     id="Sélection"
     fill="none"
     stroke="#000000"
     stroke-width="1"
     d="m 394,220 c -7.78,0.63 -8.34,4.15 -14,8.61 l -8,5.32 -10,8.35 -26,23.56 -20,18.16 -11.17,13 -15,16 -20.83,22 -10.71,10.04 -10.58,12.96 -36.18,46 -27.5,37 -19.48,32 -31.18,53 -8.05,16 -9.18,22 -6.28,13 -7.29,18 -7.56,17 -10.59,28 c -10.2,26.81 -24.57,71.29 -30.92,99 l -3.71,24 -8.4,30 c -0.3,2.97 -1.88,9.13 0,11.67 1.04,1.88 2.67,1.81 4.63,1.32 7.57,-1.91 3.61,-2.97 14.98,-2.99 l 13,0.68 13,-0.68 h 29 l 19,-1.91 c 6.27,0.39 5.55,1.89 16,1.91 h 17 l 26,2 h 24 c 5.24,0.06 7.98,0.8 13,1.58 8.01,1.24 18.04,2.58 19.77,12.42 0.89,5.01 -2.46,18.38 -3.51,24 l -6.17,45 -1.18,22 -1.87,16 v 18 l -1.04,24 0.82,10 -0.78,11 0.96,8 v 9 l 2.09,21 0.88,9 -0.76,12 2.86,9 c 1.73,6.31 2,12.51 1.93,19 -0.1,8.24 -2.49,13.73 -11,16.07 -3.57,0.99 -6.37,0.92 -10,0.93 h -13 l -11,0.92 -19,-1.88 -12,0.96 -24,-1 -10,-1 h -11 l -14,-1 -20,-2.49 h -8 l -7,-1.81 c -5.47,-0.68 -14.97,3.7 -23,3.21 -6.85,-0.42 -13.47,-4.34 -15.98,-1.3 -1.46,1.78 -1.01,7.16 -0.73,9.39 l 3.56,24 c 1.29,10.37 2.39,10.15 4.67,19 l 4.11,17 4.25,20 4.64,16 2.49,14 4.41,17 c 7.64,34.39 27.7,86.02 41.71,119 l 5.93,17 7.2,16 10.43,19 37.75,66 19.54,28 18.45,28 22.57,29 36.28,44 24.72,27 18,17 31,30.39 19,14.24 c 2.58,1.88 6.58,5.14 9.96,4.73 4.19,-0.51 7.42,-7.08 9.46,-10.36 l 19.72,-33 11.73,-22 10.81,-18 5.66,-12 11.35,-18 15.42,-26 c 6.09,-8.92 13.94,-25.76 22.89,-31.26 5.45,-3.35 11.42,0.29 16,3.56 l 10,7.78 26,18.96 c 8.59,8.11 13,11.82 23,18.26 l 9,5.61 27,18.28 15,8.27 17,10.68 37,18.34 18,8.83 18,8.64 c 5.77,2.13 15.35,4.68 19.96,8.44 3.82,3.12 8.44,9.4 7.61,14.61 -0.68,4.27 -5.19,10.24 -7.51,14 l -7.17,15 c -3.97,6 -7.02,6.03 -11.43,13 l -11.92,23 -10.12,15 -11.09,19 -10.38,14 c -3.5,5.66 -3.42,9.57 -5.67,12.99 -2.69,4.06 -6.46,5.52 -9.15,9.19 L 624.4,1811 c -2,3.76 -2.37,6.09 -5.19,10 -3.97,5.51 -9.35,7.81 -9.35,11.99 247.74434,114.5501 529.481,79.4478 670.14,24.15 4.54,-2.01 19.93,-7.91 17.84,-14.14 l -7.23,-10 -6.08,-13 -10.2,-14 -23.82,-44 -12.47,-21 -4.48,-9 -6.47,-10 -4.69,-8 -4.75,-7 -10,-20 c -4.85,-8.29 -16.74,-18.2 -6.32,-28.67 4.83,-4.87 16.07,-7.99 22.67,-10.75 l 33,-13.03 21,-9 20,-10.18 20,-9.68 10,-6.24 9,-4.9 47,-30.22 11.58,-7.02 16.42,-13.79 10,-7.15 c 4.71,-3.48 12.81,-9.88 19,-9.1 3.29,0.41 5.69,2.53 7.96,4.77 3.7,3.65 13.75,16.27 15.48,20.96 1.58,4.26 1.4,8.97 3.64,13 l 8.58,12 c 5.47,9.53 6.14,15.16 8.17,18.96 2.46,4.6 5.03,5.19 7.76,10.04 l 9.68,22 7.46,13 5.3,12 7.95,14 c 3.94,8.37 5.75,8.86 9.12,15 l 5.93,14 c 1.27,2.36 3.57,7.47 6.18,8.3 3.41,1.08 8.22,-2.77 10.79,-4.68 l 25,-21.16 23,-18.63 34.09,-33.74 21.87,-21.1 22.12,-24.99 39.02,-48 21.92,-32 c 35.15,-51 59.49,-93.81 85.29,-150 l 7.83,-16 14.81,-36 5.74,-17 12.17,-35 10.42,-33 15.47,-64 4.25,-23 c 0.55,-2.82 1.7,-7.08 -0.6,-9.4 -2.3,-2.32 -10.12,-1.57 -13.4,-1.6 l -9,-0.7 h -9 -22 l -30,1.7 -13,0.96 h -10 l -9,0.83 -17,-0.79 -20,1.13 h -11 -23 c -7.37,-0.22 -16.59,-2.78 -21.76,-8.31 -7,-7.46 -2.22,-19.38 0,-27.82 l 1.68,-9 2.37,-18 2.54,-16 1.26,-21 0.91,-10 2,-31 v -46 l -2,-29 v -11 c -0.02,-10.89 -1.83,-10.61 -3.54,-20 l -1.55,-17 c -0.54,-7.88 -2.7,-12.33 4.19,-18.79 8.17,-7.65 18.85,-6.34 28.9,-5.38 l 29,1.17 12,0.96 h 14 c 8.85,0.08 9.21,1.73 14,1.91 l 9,-0.79 14,1.82 12,-0.9 25,1.86 h 15 8 7 c 4.58,0.19 13.07,0.52 16.26,-3.29 2.54,-3.03 1.68,-8.94 1.16,-12.57 l -4.67,-30 -3.75,-17 -15.43,-66 -4.37,-13 -12.62,-41 -8.07,-22 -3.97,-13 -8.12,-19 -6.29,-16 -11.82,-25 -4.2,-10 -4.79,-9 -7.58,-17 -8.43,-15 c -35.85,-66.28 -80.64,-128.16 -131.14,-184 l -24.89,-25.17 -16.28,-16.74 -20,-18.12 -14,-12.76 -6.83,-5.41 c -3.79,-3.56 -7.11,-8.02 -12.17,-9.95 -6.8,-2.59 -7.38,3.92 -10.38,8.15 -4.89,6.91 -16.27,22.73 -19.41,30 l -3.53,10 -24.17,43 -3.97,8 -7.22,12 -4.78,10 -15.11,24 c -5.62,9.82 -14.53,32.88 -29.43,27.52 -7.25,-2.61 -16.97,-12.06 -23,-17.24 l -33,-25.24 -31,-21.6 -48,-27.78 -19,-11.34 -13,-5.63 -10,-5.2 -27,-11.4 c -5.73,-2.06 -9.23,-2.21 -15,-5.55 -6.23,-3.62 -12.03,-8.63 -11.1,-16.54 0.77,-6.52 4.06,-10.58 7.24,-16 l 16.17,-27 39.15,-63 15.79,-26 c 1.86,-3.72 3.6,-7.86 6.85,-10.59 3.51,-2.93 7.4,-2.95 9.76,-6.62 2.68,-4.15 1.82,-10.16 2.31,-14.79 0.32,-3 2,-7.2 0.72,-9.9 C 1321,83.11 1306.56,78.15 1302,76.42 l -24,-8.65 -15,-5.74 -23,-6.18 -50,-13.96 -9,-1.35 -9,-2.26 -15,-2.68 -49,-9.32 -27,-2.43 -50,-5.94 -13,-0.91 -16,1 -9,-0.66 -12,0.66 -18,-1 -16,1 h -28 l -45,5.06 h -8 l -17,3 h -8 l -12,2.65 -14,1.61 -19,4.87 -23,3.31 -9,2.74 -11,1.89 -30,7.88 -15,4.78 -14,3.25 -31,11.3 -12.94,5.7 c -1.65,0.89 -4.06,2.31 -2.89,4.57 1.08,2.1 4.81,2.34 6.83,3.23 3.65,1.6 6.49,4.67 8.33,8.16 3.45,6.56 2.21,14.08 4.45,21 l 8.85,17 c 2.61,5.38 1.91,7.39 3.37,11 l 11.1,20 8.26,18 10.89,14 c 3.32,4.96 3.26,6.61 5.65,11 l 8.15,13 c 3.07,4.84 5.18,7.59 7.64,13 l 3.3,8 c 3.08,6.05 14.73,17.92 0,28.35 -3.05,2.17 -13.9,5.89 -17.99,7.31 l -34,12.51 -20,9.52 -19,8.79 -23,13.21 -19,9.62 -26,16.47 -48,35.02 c -6.4,5.06 -17.88,15.19 -26,16 -17.76,1.78 -24.53,-26.43 -32.64,-37.8 -7.98,-11.19 -7.72,-17.42 -12.21,-24 -3.83,-5.61 -9.45,-7.98 -11.98,-13 -2.24,-4.46 0.19,-8.43 -3.99,-17 -4.15,-8.5 -8.74,-10.06 -11.82,-17 -2.09,-4.72 -2.28,-11.3 -5.19,-17 -3.06,-5.97 -7.41,-8.3 -10.64,-14 -3.29,-5.81 -1.41,-7.87 -6.3,-15 -4.77,-6.95 -9.74,-11.48 -12.23,-20 z M 919,112.39 c 1.64,-0.08 2.29,-0.21 4,0 11.3,0.93 21.66,9.91 21.98,21.61 0.41,14.44 -8.73,26.58 -23.98,25.96 -17.6,-0.71 -28.28,-19.51 -19.96,-34.96 3.85,-7.13 10.18,-11.07 17.96,-12.61 z m 126,3.08 c 9.57,-1.12 21.8,3.01 27,11.53 8.21,13.46 -2.11,32.01 -17,34.67 -27.6,4.94 -37.18,-28.87 -21.67,-41.87 3.17,-2.66 7.72,-3.49 11.67,-4.33 z m -66,62.14 c 3.88,-0.74 8.13,-1.02 12,0 18.07,4.79 24.06,28.61 9.83,41 -4.55,3.95 -11.93,5.61 -17.83,5.35 -19.69,-0.86 -27.95,-22.56 -16.9,-37.87 3.2,-4.42 7.87,-6.77 12.9,-8.48 z m -62,60.86 c 26.19,-3.58 36.68,30.79 17,43.4 -5.13,3.28 -9.18,3.2 -15,3.13 -16.77,-0.22 -26.06,-17.09 -20.02,-32 3.36,-8.31 9.59,-12.53 18.02,-14.53 z m 125,2 c 9.76,-1.37 20.43,0.68 26.28,9.54 2.33,3.54 2.67,7.88 2.72,11.99 0.16,16.15 -9.83,25.61 -26,24.96 -28.07,-1.13 -29.29,-40.22 -3,-46.49 z m -85,108.74 h 23 l 21,1.79 c 8.86,0.01 22.2,1.44 31,2.92 4.6,0.78 22.82,3.88 25.61,6.08 4.71,3.72 2.45,10.13 1.26,15 -3.09,12.67 -8.15,25.93 -23.87,24.82 l -14,-1.65 -30,-2.26 -12,-0.91 -27,1 -14,1 c -6.84,0.08 -17.18,1 -22.96,-2.61 -7.62,-4.75 -10.66,-17.01 -12.37,-25.39 -0.94,-4.58 -1.17,-9.81 2.72,-13.15 3.2,-2.75 9.47,-3.25 13.61,-3.93 L 941,350 c 5.47,-0.02 10.56,0.2 16,-0.79 z m -219,46.25 c 2.91,-0.37 5.22,-0.71 7.98,0.71 7.28,3.75 10.49,20.16 10.93,27.83 0.94,16.45 -8.86,17.23 -20.91,23.25 l -34,16.06 -29,18.38 c -9.18,5.93 -25.01,17.02 -36,16.21 -8.7,-0.64 -17.01,-10.24 -21.84,-16.9 -2.18,-3 -4.89,-7.14 -4.77,-11 0.14,-4.33 3.51,-7.91 6.63,-10.54 5.38,-4.55 22.52,-15.6 28.98,-19.15 l 10,-5.23 c 22.85,-13.63 56.14,-34.04 82,-39.62 z m 476.18,11.28 c 10.14,-2.6 25.82,6.88 34.82,11.52 l 17,9.88 24,13.31 28,18.84 c 5.49,3.91 23,16.02 25.99,20.8 3.74,5.98 -0.79,9.6 -4.91,13.49 -7.61,7.2 -11.31,13.99 -23.08,13.38 -9.77,-0.51 -20,-10.98 -28,-16.36 -11.85,-7.97 -30.34,-20.26 -43,-26.28 -8.8,-4.18 -29.56,-13.54 -35.38,-20.36 -7.1,-8.31 -4.71,-15.27 -2.62,-24.96 1.2,-5.58 2.08,-10.01 7.18,-13.26 z M 1658,480.47 c 9.66,-1.32 21.84,3.28 26.23,12.53 6.19,13.02 -2.62,33.11 -17.23,35.67 -5.44,0.96 -13.14,0.55 -18,-2.2 -13.98,-7.93 -17.04,-27.55 -5.53,-39 3.96,-3.95 9.21,-5.75 14.53,-7 z m -111,63.06 c 8.41,-1.39 16.37,-0.28 22.82,5.8 3.87,3.65 5.37,7.57 6.26,12.67 2.43,14.11 -5.07,25.51 -19.08,29.12 -3,0.58 -5.96,0.99 -9,0 -9.2,-2.37 -16.76,-14.81 -16.99,-24.12 -0.26,-11.03 5.11,-19.98 15.99,-23.47 z m -1230,2.75 h 4 c 26.03,-1.37 32.36,38.29 8,45.93 -2.73,0.85 -8.17,1.71 -11,1.46 -17.82,-1.57 -27.36,-19.06 -18.47,-34.67 3.92,-6.89 10.1,-10.29 17.47,-12.72 z m 173,37.37 c 11.24,-2.32 14.96,2.95 22.04,10.35 6.34,6.63 11.81,12.01 9.57,22 -1.09,4.87 -4.98,8.94 -7.72,13 l -15.74,23 c -12.51,17.41 -21.94,36.33 -32.29,55 -6.7,12.08 -7.67,22.35 -23.86,21.99 -9.67,-0.22 -24.87,-3.48 -29.43,-12.99 -2.75,-5.73 -0.89,-16.26 1.36,-22 4.54,-11.61 15.07,-27.99 21.67,-39 9.22,-15.38 19.28,-33.28 30.68,-47 6.26,-7.52 15.12,-20.74 23.72,-24.35 z m 1224,9.13 c 9.85,-1.69 25.72,3.13 30.91,12.22 4.39,7.68 2.12,22.45 -1.67,30 -1.9,3.79 -4.05,7.66 -8.24,9.26 -3.49,1.33 -9.32,-0.02 -13,-0.68 -22.51,-4.1 -31.29,-24.27 -16.98,-42.58 3.05,-3.91 4.5,-5.94 8.98,-8.22 z m -257,12.98 c 10.22,-1.78 19.16,14.67 23.81,22.24 l 32.82,55 10.79,25 c 3.48,8.27 6.71,14.1 8.83,23 1.41,5.91 1.08,10.08 -5.25,12.39 -8.92,3.25 -22.07,5.7 -29.96,-0.78 -4.76,-3.92 -5.92,-8.32 -8.35,-13.61 l -12.58,-27 -17.47,-31 -6.54,-9 -5.54,-9 c -5.73,-8.31 -11.01,-13.3 -10.52,-24 0.38,-8.27 5.2,-11.23 10.96,-16.28 3.56,-3.13 4.65,-4.73 9,-6.96 z m 153,47.76 c 11.31,-1.54 18.28,3.05 25.24,11.48 1.87,2.26 4.34,5.1 5.02,8 0.69,2.98 -0.67,6.17 -1.54,9 -0.96,3.11 -1.47,5.13 -3.2,8 -2.69,4.45 -12.36,13.4 -17.52,14.26 -2.84,0.48 -7.29,-0.98 -10,-1.96 -11.83,-4.28 -18,-12.8 -18,-25.3 0,-2.34 -0.04,-4.74 0.65,-7 2.69,-8.94 10.82,-14.2 19.35,-16.48 z M 375,871.61 c 7.12,0.07 9.61,2 16,3.96 5.56,1.7 12.57,2.83 15.55,8.47 2.25,4.27 0.84,7.56 0.54,11.96 l -2.05,25 -1.04,16 -0.77,17 v 8 17 l 1.77,32 c 0.04,3.75 0.45,8.71 -1.74,11.9 -2.49,3.63 -6.33,4.6 -10.26,5.82 -7.18,2.22 -12.25,4.58 -20,4.24 -17.98,-0.79 -17.2,-19.93 -18.09,-32.96 l -0.91,-12 -1,-31 1,-17 c 0.02,-10.68 1.53,-28.42 3.25,-39 2.14,-13.23 0.22,-27.06 17.75,-29.39 z m 1189,22.02 c 12.05,0.95 10.34,16.66 11.17,25.37 l 0.83,10 1,24 1,16 -1,33 c -0.05,10.54 -2.85,27.36 -4.75,38 -1.25,7.01 -2.68,12.58 -11.25,11.82 -10.41,-0.92 -22.19,-5.18 -25.89,-15.82 -1.34,-3.85 -1.15,-7.98 -1.11,-12 l 3.04,-37 v -11 l 0.96,-10 v -16 l -1,-20 c -0.09,-7.79 -2.68,-15.4 0.75,-23 4.53,-10.05 16.29,-12.22 26.25,-13.37 z M 428,1177.46 c 3.8,-0.52 10.54,-1.06 13.98,0.71 6.42,3.31 13.44,22.72 16.8,29.83 l 22.77,41 8.68,15 c 4.37,6.97 15.17,21.07 17.09,28 0.84,2.78 0.93,7.27 0,10 -2.85,7.84 -17.09,20.01 -25.32,21.37 -16.91,2.78 -27.46,-19.54 -35.09,-31.37 l -10.85,-16 c -7.24,-11.73 -20.33,-37.19 -25.46,-50 -3.21,-8.03 -8.38,-18.38 -8.59,-27 -0.05,-2.41 -0.08,-5.72 0.64,-8 3.37,-10.73 16.14,-11.58 25.35,-13.54 z m 1067,17.07 c 7.25,-1.19 16.01,0.34 23,2.51 3.5,1.09 6.78,2.34 8.26,6 2.17,5.36 -2.53,18.62 -4.71,23.96 l -12.24,23 c -10.99,20.32 -23.31,39.11 -36.59,58 -5.67,8.07 -8.78,12.4 -15.3,20 -2.64,3.07 -6.28,7.64 -10.42,8.53 -5.12,1.1 -9.68,-3.31 -13,-6.55 -8.15,-7.92 -14.41,-14.86 -11.07,-26.98 1.73,-6.29 5.69,-10.06 9.62,-15 l 12.53,-17 29.17,-50 c 5.65,-11.33 7.28,-22.45 20.75,-26.47 z m -1170,28 c 7.44,-1.19 17.33,1.09 22.68,6.66 13.02,13.57 5.79,35.37 -12.68,39.29 -21.46,4.56 -35.81,-20.47 -23.35,-37.44 3.25,-4.43 8.21,-6.98 13.35,-8.51 z m 1272,20.75 c 2.3,-0.13 3.63,-0.33 6,0 27.07,1.48 30.46,41.27 5,47.48 -2.89,0.71 -6.02,1.28 -9,1.06 -14.43,-1.1 -22.31,-10.73 -21.99,-24.82 0.09,-3.76 0.66,-7.63 2.43,-11 3.52,-6.71 10.41,-10.83 17.56,-12.72 z m 58,32.43 c 5.04,0.11 10.71,-0.15 14.96,2.94 10.68,7.78 11.7,28.64 2.83,38.26 -5.46,5.91 -12.11,7.25 -19.79,7.08 -15.55,-0.36 -23.35,-11.17 -22.99,-25.99 0.12,-4.96 1.54,-9.93 4.63,-13.91 5.15,-6.64 12.55,-7.98 20.36,-8.38 z m 51,31.73 c 16.09,-1.71 27,9.87 27,25.56 0,5.08 -0.39,8.71 -3.64,12.91 -5.73,7.42 -13.57,9.19 -22.36,9.09 -21.52,-0.26 -27.51,-24.48 -20.91,-36 4.26,-7.44 12.01,-10.09 19.91,-11.56 z m -1404,2.03 c 9.24,-1.29 16.33,0.11 22.66,7.57 10.96,12.9 4.25,34.5 -13.66,37.63 -10.63,1.86 -23.56,-4.07 -27.15,-14.67 -1,-2.97 -0.89,-6.86 -0.85,-10 0.07,-4.94 0.66,-7.87 3.79,-11.91 3.7,-4.79 9.48,-7.26 15.21,-8.62 z m 1229,43.28 c 4.11,-0.89 9.02,-1.22 13,0 25.14,9.3 17.65,48.86 -10,47.16 -17.97,-1.11 -25.6,-22.37 -17.35,-36.87 3.05,-5.37 8.58,-8.79 14.35,-10.29 z m 53,31.56 c 2.25,-0.15 3.68,-0.37 6,0 31.74,1.95 28.01,50.92 -4,48.37 -16.38,-1.31 -26.47,-17.69 -20.52,-32.68 3.56,-8.97 9.52,-13.06 18.52,-15.69 z m -1309,11.22 c 5.26,-0.86 12.23,-1.2 17,1.44 19.53,10.79 16.68,38.78 -6,43.51 -8.91,1.86 -22.56,-5.1 -25.85,-13.48 -1.21,-3.07 -1.21,-6.74 -1.14,-10 0.26,-10.55 5.79,-18.42 15.99,-21.47 z m 342,18.12 c 11.81,-2.43 20.89,7.04 30,13.33 l 20,12.55 16,11.01 29,16.92 c 7.63,4.59 17.88,5.78 23.61,13.56 4.29,6.11 2.04,13.49 0,19.98 -3.37,11.73 -5.22,22.63 -20.61,21.96 -6.33,-0.28 -20.7,-7.61 -27,-10.72 -9.44,-4.65 -18.16,-10.86 -27,-16.54 l -10,-5.76 -27,-17.61 c -6.87,-4.58 -24.06,-15.99 -28.01,-22.33 -7.88,-12.66 0.34,-21.61 10.01,-29.21 4.01,-3.15 6.19,-5.17 11,-7.14 z m 1020,4.82 c 9.48,-1.33 19.11,0.53 25.2,8.62 6.18,8.19 4.84,24.48 -2.41,31.7 -4.31,4.29 -12.81,6.47 -18.79,6.12 -5.16,-0.3 -10.92,-1.9 -14.91,-5.3 -14.72,-12.54 -7.01,-36.76 10.91,-41.14 z m -341,6.18 c 13.9,-2.86 17.93,2.03 27.01,11.35 6.53,6.7 11.34,11.38 3.78,19.96 -5.05,5.73 -18,13.86 -24.79,18.37 -19.15,12.71 -42.4,25.62 -63,35.92 -7.29,3.64 -31.18,15.28 -38,16.42 -9.07,1.52 -11.32,-4.38 -13.66,-11.67 -3.23,-10.08 -6.56,-24.18 2.13,-32.47 4.22,-4.03 10.21,-5.63 15.53,-7.58 l 25,-10 10,-6.61 31,-17.69 c 6.27,-4.17 18.91,-13.59 25,-16 z m -399,99.99 c 9.47,-1.9 24.69,2.18 35,2.18 l 9,-0.62 c 5.85,0.55 3.93,1.78 14,1.8 h 20 l 16,-1 22,-0.68 c 17.45,-1.3 21.78,10.19 25.25,24.68 0.75,3.13 0.61,4.01 0.91,7 0.69,6.68 1.19,10.43 -6.16,13.29 -8.98,3.48 -25.17,4.12 -35,4.8 l -11,0.91 h -34 l -12,-0.96 h -14 c -5.94,-0.07 -31.91,-3.22 -37,-4.84 -4.45,-1.42 -7.95,-4.7 -9.35,-9.2 -2.34,-7.49 3.62,-27.01 8.88,-32.79 2.34,-2.57 4.33,-3.39 7.47,-4.57 z m 117,113.92 c 7.67,-1.34 16.65,-1.23 22.91,3.97 15.59,12.94 9.94,37.39 -9.91,41.94 -24.3,5.58 -40.2,-23.87 -21.7,-40.8 2.95,-2.7 4.99,-3.82 8.7,-5.11 z m -127,121.96 c 4.45,-0.71 7.63,-0.76 12,0.52 22.96,6.75 22.64,38.34 1,45.86 -3.01,1.05 -6.81,1.85 -10,1.57 -3.15,-0.27 -7.17,-1.43 -10,-2.85 -20.42,-10.22 -16.55,-38.76 7,-45.1 z"
     style="stroke-width:4.7244;stroke-dasharray:none" />
  <circle
     style="fill:none;stroke:#000000;stroke-width:4.81306;stroke-dasharray:none;stroke-opacity:1"
     id="path844"
     cx="970.58539"
     cy="964.97113"
     r="944.28784" />
  <circle
     style="fill:none;stroke:#000000;stroke-width:4.81889;stroke-dasharray:none;stroke-opacity:1"
     id="path1115"
     cx="965.40656"
     cy="994.93091"
     r="49.107124" />
  <path
     style="fill:none;stroke:#000000;stroke-width:5.52592;stroke-dasharray:none;stroke-opacity:1"
     d="M 896.25128,930.29037 1154.3158,324.63439 1053.4072,972.54571 c -28.0783,-74.4561 -95.49424,-90.49365 -157.15592,-42.25534 z"
     id="path1359" />
  <path
     style="fill:none;stroke:#000000;stroke-width:4.7244;stroke-dasharray:none;stroke-opacity:1"
     d="m 1054.1099,991.61063 c -5.0947,65.55247 -40.0734,93.49317 -107.76036,94.49867 l 284.43136,233.8894 z"
     id="path1361" />
  <path
     style="fill:none;stroke:none;stroke-width:0;stroke-dasharray:none;stroke-opacity:1;stroke-miterlimit:0;stroke-linejoin:miter;paint-order:normal;stroke-linecap:butt"
     d="m 69.274228,151.71186 c -6.019394,-0.90405 -9.441679,-1.70316 -14.257368,-3.32912 l -5.522791,-1.86471 2.768025,-4.28598 c 1.522414,-2.35729 3.42956,-5.2952 4.238103,-6.52869 0.808542,-1.23349 1.319454,-2.63523 1.135359,-3.11497 -0.184094,-0.47974 -2.791511,-2.14115 -5.794259,-3.692 -3.002748,-1.55087 -7.237894,-4.1325 -9.411435,-5.73698 -2.173541,-1.60448 -4.294209,-2.78587 -4.712594,-2.62532 -0.418385,0.16055 -2.489209,3.24327 -4.601831,6.85049 -3.131211,5.34641 -4.021612,6.46199 -4.817646,6.03596 C 26.599948,132.51188 19.460097,124.6073 16.217194,120.04603 10.536469,112.05585 5.2229404,99.286299 3.8955131,90.434378 l -0.4322809,-2.882657 6.5511718,0.09939 c 3.603145,0.05464 7.333763,0.07609 8.290261,0.04759 l 1.73909,-0.05174 -0.411023,-5.599412 C 19.394015,78.795483 19.507783,74.095317 19.904117,70.835681 20.307804,67.51556 20.3654,65.002098 20.045132,64.681829 19.747366,64.384064 16.047536,63.965268 11.823289,63.751174 L 4.1428394,63.361908 4.5388203,60.896607 C 5.7548141,53.326062 11.283143,41.031896 16.911898,33.380757 21.142637,27.629935 30.63082,18.025702 31.338057,18.778153 c 0.25752,0.273985 1.612505,2.666738 3.011076,5.317231 2.98698,5.660752 4.656019,8.132192 5.491921,8.132192 0.33221,0 2.279031,-1.192127 4.32627,-2.649172 3.645188,-2.594324 8.706775,-5.354837 13.209808,-7.20443 2.825353,-1.160495 2.853671,-2.110371 0.191495,-6.423437 -1.137096,-1.842241 -2.620644,-4.753002 -3.296774,-6.4683572 L 53.042526,6.3633517 56.887513,5.1757562 c 7.010872,-2.165438 11.307621,-2.7110221 21.121292,-2.6818975 9.984175,0.029631 14.464784,0.6873365 22.589425,3.3158904 4.31943,1.3974614 5.485,2.1309334 4.44843,2.7993152 -1.03827,0.6694788 -7.460356,11.3435537 -7.460356,12.3997737 0,0.584727 1.900842,1.892194 4.969676,3.418319 2.73332,1.359276 6.86038,3.846255 9.17124,5.526619 2.31087,1.680363 4.60906,3.082695 5.10708,3.116292 0.80505,0.05431 3.354,-3.769706 7.63697,-11.457218 l 1.28362,-2.303974 5.04142,5.144993 c 10.35098,10.563643 17.18457,23.211112 20.08849,37.179337 0.50386,2.423667 0.91612,4.541193 0.91612,4.705608 0,0.164415 -3.72726,0.214461 -8.28279,0.111218 l -8.28279,-0.187727 0.20237,6.927423 c 0.1113,3.810082 -0.10172,8.785448 -0.47339,11.056365 -0.98675,6.029147 -0.94021,6.05958 8.61762,5.634501 l 7.75754,-0.345016 -0.37601,2.351469 c -0.68615,4.290966 -3.48688,12.253733 -6.23886,17.737763 -4.184,8.33767 -8.213,13.91708 -14.7653,20.44714 -5.4802,5.4616 -6.05933,5.87989 -6.67204,4.81908 -0.36903,-0.63891 -2.03331,-3.73535 -3.69841,-6.88098 -1.88292,-3.55715 -3.4442,-5.79773 -4.12984,-5.9267 -0.60631,-0.11406 -2.7066,0.91791 -4.6673,2.29326 -1.9607,1.37536 -6.13309,3.7172 -9.27197,5.2041 -3.138871,1.4869 -5.876347,2.97739 -6.083273,3.31221 -0.206925,0.33481 1.41196,3.69769 3.597532,7.47306 2.185561,3.77538 3.973761,7.00083 3.973761,7.16767 0,0.59121 -8.140293,2.80627 -13.518973,3.67866 -4.91588,0.79733 -16.350447,1.0799 -20.214569,0.49955 z m 4.102197,-8.7556 c 0.252038,-2.18162 -1.574049,-3.21908 -3.406678,-1.93546 -2.256508,1.58052 -1.119935,4.05867 1.709791,3.72799 1.134591,-0.13259 1.556622,-0.57841 1.696887,-1.79253 z m 10.36984,-8.64233 c 1.758523,-2.1189 -1.560929,-5.12251 -3.508637,-3.1748 -0.779191,0.77919 -0.975791,3.0401 -0.32127,3.69462 0.731475,0.73148 3.052915,0.41639 3.829907,-0.51982 z m -1.821961,-8.0485 c 0.858224,-0.23732 1.572218,-0.92401 1.66001,-1.59651 0.315782,-2.41906 -0.670605,-2.86666 -6.746093,-3.06126 -5.622935,-0.18011 -5.821794,-0.14129 -6.460744,1.26105 -1.350305,2.9636 -0.0024,3.72157 6.727751,3.78295 1.822213,0.0166 3.990798,-0.15719 4.819076,-0.38623 z m -23.620176,-4.1912 c 0.42702,-0.27093 0.833629,-1.24391 0.903577,-2.1622 0.111283,-1.46094 -0.399811,-2.00226 -4.089515,-4.33137 -5.630103,-3.55397 -5.591533,-3.54132 -6.976376,-2.28806 -2.104261,1.90433 -1.224795,3.34807 3.91772,6.43134 5.169314,3.09933 5.103198,3.07445 6.244594,2.35029 z m 44.287452,-2.58569 c 3.2229,-1.90217 4.0618,-2.68775 3.9155,-3.66663 -0.39559,-2.64678 -1.93654,-2.67851 -6.818243,-0.14041 -5.050959,2.6261 -5.835812,3.50031 -5.038929,5.61261 0.698188,1.8507 2.403725,1.46294 7.941672,-1.80557 z m 30.77201,-3.07772 c 0.92899,-1.48197 -0.27229,-3.16825 -2.23785,-3.14132 -1.11882,0.0153 -1.64309,-0.36007 -1.8929,-1.35536 -0.2632,-1.04871 -0.77318,-1.37657 -2.14117,-1.37657 -1.12363,0 -1.79568,-0.31056 -1.79568,-0.82982 0,-1.57005 -1.69607,-2.4261 -3.33095,-1.68119 -2.61795,1.19281 -1.2675,4.87356 1.52059,4.14446 0.89122,-0.23305 1.20798,-0.0203 1.20798,0.81129 0,1.33687 1.92919,2.52085 3.26948,2.00654 0.58478,-0.2244 0.94721,-0.0391 0.94721,0.48407 0,2.27734 3.1922,2.94965 4.45329,0.9379 z M 24.067866,115.08861 c 0.397312,-0.47872 0.633808,-1.49525 0.525548,-2.25894 -0.155578,-1.09747 -0.57564,-1.38852 -2.003992,-1.38852 -1.545446,0 -1.835948,0.25224 -2.005986,1.74179 -0.284554,2.49271 1.972681,3.72722 3.48443,1.90567 z m 2.413702,-7.51932 c 1.005154,-1.87815 0.138696,-3.14669 -2.006356,-2.9374 -1.905947,0.18596 -2.651353,1.41715 -1.955641,3.23014 0.489534,1.2757 3.230996,1.07315 3.961997,-0.29274 z m 112.554782,-0.7561 c 0.1991,-1.72346 -1.48621,-3.17442 -3.00858,-2.59023 -0.44884,0.17224 -1.06373,-0.29204 -1.39901,-1.05633 -0.39193,-0.89344 -1.11746,-1.36363 -2.10415,-1.36363 -0.94347,0 -1.8015,-0.51981 -2.29721,-1.39169 -1.19352,-2.099211 -3.95845,-1.62564 -4.22666,0.72394 -0.2278,1.99554 0.79651,2.93051 2.71695,2.47997 1.01925,-0.23913 1.35648,-0.004 1.50596,1.04817 0.15488,1.09058 0.57616,1.35516 2.15036,1.35047 1.39187,-0.004 1.95775,0.27155 1.95775,0.95378 0,1.43491 0.66267,1.83923 2.68908,1.64073 1.48061,-0.14504 1.86435,-0.48684 2.01551,-1.79518 z m -21.73422,-0.64291 c 1.45959,-1.5802 4.66287,-6.9309 5.24239,-8.756782 0.29128,-0.917763 0.0587,-1.442344 -0.85664,-1.932227 -1.54404,-0.826339 -3.44709,-0.293898 -3.88539,1.087075 -0.17958,0.565814 -1.27774,2.47312 -2.44035,4.238454 -2.36635,3.59312 -2.53119,4.40829 -1.16723,5.77224 1.24866,1.24867 1.62162,1.19961 3.10722,-0.40876 z m -77.062839,-0.57226 c 1.17493,-1.17493 0.863149,-2.40932 -1.837273,-7.274078 -1.574118,-2.835744 -2.947167,-4.619947 -3.565041,-4.632585 -3.17701,-0.06498 -3.727936,2.014133 -1.63702,6.177888 2.838082,5.651625 5.196857,7.571255 7.039334,5.728775 z m 58.551782,-0.25845 c 0,-0.20841 -3.11734,-6.154351 -6.927423,-13.213202 -3.810082,-7.058851 -6.928989,-13.326319 -6.930898,-13.927704 -0.0018,-0.601391 1.784889,-12.566628 3.970672,-26.589414 3.46682,-22.241286 4.034055,-27.084666 3.04003,-25.957706 -0.322541,0.365683 -20.862072,48.701316 -20.862072,49.094679 0,0.182517 0.544158,0.159138 1.209239,-0.05192 1.191083,-0.378033 1.190101,-0.351353 -0.06522,1.776257 -2.297976,3.894784 -0.347563,8.055165 4.277443,9.124109 l 2.108346,0.487287 -1.994947,0.330733 c -1.977424,0.327824 -1.893397,0.414091 9.562367,9.818285 10.643534,8.737386 12.612464,10.159326 12.612464,9.108596 z m -70.503014,-4.11002 c 1.600208,-1.928131 -0.750109,-4.89002 -2.83731,-3.575598 -2.085654,1.313445 -1.342611,4.450238 1.054173,4.450238 0.581488,0 1.3839,-0.39359 1.783137,-0.87464 z M 126.13512,83.682189 c 0.58156,-1.515503 0.42339,-12.192824 -0.18619,-12.569568 -0.30351,-0.187576 -1.25227,-0.07475 -2.10834,0.250737 -1.52018,0.577964 -1.55652,0.72294 -1.55652,6.208868 0,3.565665 0.264,5.881081 0.72286,6.339948 1.02051,1.020505 2.6956,0.897354 3.12819,-0.229985 z M 32.655115,81.773708 c 0.114144,-0.579795 0.200179,-3.472265 0.19119,-6.427708 -0.01608,-5.287793 -0.04164,-5.380373 -1.601812,-5.802139 -0.872007,-0.235737 -1.900587,-0.233851 -2.285733,0.0042 -0.869065,0.53711 -1.555678,8.143487 -1.00167,11.096605 0.375032,1.999091 0.58168,2.183234 2.450034,2.183234 1.462642,0 2.099227,-0.298517 2.247991,-1.054173 z M 122.6924,57.770075 c -0.48404,-2.982777 -4.68152,-9.579308 -6.09548,-9.579308 -1.98508,0 -2.59018,1.882374 -1.31078,4.077634 0.62384,1.070417 1.79017,3.233809 2.59183,4.807539 1.26238,2.478144 1.7059,2.861327 3.31185,2.861327 1.79234,0 1.84252,-0.07239 1.50258,-2.167192 z M 39.363314,54.144259 c 1.541985,-2.523531 2.803607,-4.874075 2.803607,-5.223432 0,-0.941007 -1.871936,-2.838406 -2.800314,-2.838406 -1.532997,0 -6.837839,8.354451 -6.837839,10.768727 0,1.261319 0.749438,1.757738 2.76845,1.833793 0.946953,0.03567 1.963202,-1.099193 4.066096,-4.540682 z m 91.712706,1.272108 c 1.23979,-1.892158 0.30808,-3.3101 -2.17503,-3.3101 -2.35589,0 -3.16653,2.15956 -1.45362,3.872472 1.35024,1.350246 2.49132,1.1734 3.62865,-0.562372 z m 8.55673,-4.032961 c 0.39757,-0.397574 0.72286,-1.353039 0.72286,-2.123256 0,-1.722644 -2.67308,-3.004074 -3.98877,-1.912149 -1.71828,1.42604 -0.61233,4.758266 1.57923,4.758266 0.5301,0 1.2891,-0.325288 1.68668,-0.722861 z M 27.593421,45.682121 c 0.145468,-1.499553 -0.08561,-1.992126 -1.08308,-2.308711 -1.585877,-0.503337 -3.017342,0.626324 -3.017342,2.38118 0,1.765424 0.547125,2.226606 2.386995,2.012044 1.228744,-0.143294 1.564771,-0.552095 1.713427,-2.084513 z m 98.277439,1.337034 c 0.39731,-0.478732 0.63381,-1.495256 0.52555,-2.258943 -0.15558,-1.09747 -0.57564,-1.388521 -2.00399,-1.388521 -1.54545,0 -1.83595,0.252242 -2.00599,1.74179 -0.28455,2.492714 1.97268,3.727219 3.48443,1.905674 z m 9.35819,-5.735988 c 0.62123,-1.957331 -0.30115,-3.110964 -2.32955,-2.913581 -1.47232,0.143273 -1.92599,0.502799 -2.08866,1.655239 -0.38069,2.69705 3.6016,3.831239 4.41821,1.258342 z m -28.56738,-0.643401 c 1.81324,-0.970415 1.38054,-2.683535 -1.09377,-4.330388 -4.36883,-2.907812 -6.629924,-4.081802 -7.861511,-4.081802 -2.217498,0 -2.398551,3.794728 -0.21413,4.488036 0.549688,0.174464 2.35439,1.254139 4.010451,2.399279 3.39035,2.344374 3.54326,2.389572 5.15896,1.524875 z M 55.560929,38.204832 c 1.744363,-1.019558 3.578178,-2.063419 4.075145,-2.319692 1.313919,-0.67755 1.537353,-4.170136 0.297225,-4.646018 -1.113224,-0.427185 -9.309699,3.515336 -10.852439,5.220045 -0.780092,0.861993 -0.845805,1.351826 -0.314526,2.344529 0.945998,1.767615 3.065381,1.580816 6.794595,-0.598864 z m 29.412592,-7.58131 c 0.373117,-0.981365 0.393797,-1.820116 0.05325,-2.160634 -0.713061,-0.713061 -9.705567,-1.341998 -11.772059,-0.823341 -1.665895,0.418113 -1.969141,1.513714 -0.9474,3.422861 0.54929,1.026303 1.304885,1.165168 6.339977,1.165168 5.63641,0 5.724901,-0.02244 6.326232,-1.604054 z m -9.193202,-9.290431 c 0.218376,-1.878649 -1.18115,-3.202103 -2.832063,-2.678123 -2.828413,0.897704 -1.871838,4.761397 1.093485,4.416698 1.167873,-0.135758 1.602818,-0.570702 1.738578,-1.738575 z m 10.059485,-0.24963 c 0,-1.594482 -0.22796,-1.829187 -1.937082,-1.994375 -1.637432,-0.158259 -1.99564,0.04611 -2.315651,1.321129 -0.530719,2.114542 0.144025,2.87922 2.351517,2.664945 1.669864,-0.162089 1.901216,-0.404453 1.901216,-1.991699 z m -5.105462,-3.632147 c 1.758523,-2.118891 -1.560929,-5.122507 -3.508637,-3.174799 -0.779191,0.779189 -0.975791,3.040106 -0.32127,3.694625 0.731475,0.731478 3.052915,0.416394 3.829907,-0.519826 z M 75.785963,10.651811 C 75.641945,9.4051776 75.22986,8.9930917 73.983225,8.8490706 71.61442,8.5754067 70.601522,10.664258 72.286151,12.348884 c 1.684629,1.684626 3.773476,0.671734 3.499812,-1.697073 z m 9.511731,2.44083 c 1.01541,-0.678155 1.341981,-2.134823 0.74071,-3.3038914 -0.729524,-1.4184235 -3.311862,-1.3483933 -4.092908,0.1109948 -0.806466,1.5068996 -0.796858,1.5874176 0.323029,2.7073046 1.026186,1.026188 1.988694,1.180483 3.029169,0.485592 z"
     id="path1373"
     transform="scale(12.499965)" />
  <path
     style="fill:#448aff;stroke:none;stroke-width:0.0941786;stroke-miterlimit:0;stroke-opacity:1;fill-opacity:1"
     d="m 72.518026,152.23818 c -6.809634,-0.59081 -12.401334,-1.73101 -18.062775,-3.68316 -3.232941,-1.11476 -4.832501,-1.83544 -4.830052,-2.17615 0.003,-0.40995 1.156033,-2.3443 1.6771,-2.81341 0.247861,-0.22314 0.450653,-0.52169 0.450653,-0.66345 0,-0.14175 0.181645,-0.48865 0.403652,-0.77089 0.22201,-0.28224 1.032791,-1.56503 1.801738,-2.85064 0.768944,-1.28562 1.678586,-2.72084 2.021425,-3.18938 0.962305,-1.31515 1.749318,-3.01605 1.596008,-3.44931 -0.189118,-0.53445 -0.945937,-1.34263 -1.257303,-1.34263 -0.337717,0 -6.431657,-3.01285 -8.079609,-3.99456 -1.923834,-1.14607 -4.814313,-3.07036 -5.536214,-3.68565 -1.597773,-1.36183 -4.03906,-2.96855 -4.510474,-2.96855 -0.283755,0 -0.72698,0.22995 -0.984944,0.51101 -0.503554,0.54862 -2.624379,4.0672 -5.499424,9.12387 -0.981643,1.72653 -1.943515,3.3511 -2.137495,3.61017 l -0.352689,0.47103 -0.855993,-0.5932 C 26.161092,132.2483 21.835527,127.74471 18.212184,123.2061 13.050384,116.74042 8.2336034,107.5363 5.8405735,99.565865 5.3099769,97.798615 3.4072302,89.521216 3.2771385,88.414314 l -0.1286366,-1.094518 2.3125448,0.03074 c 1.2718997,0.01691 4.2293209,0.120714 6.5720473,0.23069 5.293568,0.248499 6.977618,0.158626 7.482554,-0.399322 0.344663,-0.380848 0.350829,-0.648179 0.08909,-3.862698 -0.457212,-5.615251 -0.265271,-11.47376 0.524246,-16.001183 0.386216,-2.214726 0.18949,-2.793801 -1.012856,-2.981389 C 17.563473,64.094392 9.9061998,63.875638 6.8680242,63.986733 3.2733227,64.118175 3.4093129,64.175105 3.8415448,62.719765 3.9630772,62.310561 4.2547535,61.01737 4.4897144,59.846007 4.7246753,58.674644 5.5301872,55.895318 6.2797407,53.669728 10.108311,42.301858 15.07971,34.059898 23.413215,25.264558 c 3.409207,-3.598141 7.047925,-6.842211 7.674581,-6.842211 0.438073,0 1.184576,0.828634 1.40685,1.561632 0.07699,0.253898 0.353918,0.749148 0.615394,1.100557 0.261473,0.351409 0.588115,0.982859 0.72587,1.403222 0.137754,0.420363 0.48773,1.085895 0.777723,1.47896 0.289994,0.393062 0.527261,0.932305 0.527261,1.198311 0,0.266008 0.267328,0.798462 0.594062,1.18323 0.326733,0.384769 1.008652,1.51421 1.515375,2.509869 1.904888,3.742899 2.266334,3.795406 6.2264,0.904503 1.564945,-1.142431 3.228711,-2.324649 3.697256,-2.627152 1.900895,-1.227263 6.756314,-3.636651 9.15793,-4.544407 2.485816,-0.939584 3.305003,-1.491653 3.297556,-2.222299 C 59.62532,19.96151 58.148469,17.158864 56.972962,15.327474 55.606377,13.198389 53.713546,9.28587 53.431861,8.0079467 53.338901,7.5862106 53.200917,6.9852097 53.125228,6.6723891 52.990393,6.1151099 53.02996,6.0900598 55.084548,5.4319166 c 4.62527,-1.4816057 9.732319,-2.5215833 15.26829,-3.109169 4.825677,-0.5121954 13.247614,-0.3155789 18.138321,0.4234529 4.498456,0.679759 8.736137,1.7099602 13.364191,3.248902 l 3.56733,1.1862264 v 0.7925807 c 0,0.6008309 -0.11593,0.8571844 -0.47919,1.0596147 -0.26356,0.1468689 -1.98866,2.7350777 -3.83356,5.7515757 -3.648272,5.965112 -3.821893,6.418911 -2.813431,7.353522 0.297507,0.275721 0.785568,0.562712 1.084576,0.637759 1.230145,0.308745 4.640605,1.992897 7.675845,3.790484 2.77504,1.643478 4.95176,3.167804 8.19026,5.735526 1.19697,0.949045 1.77198,0.979788 2.57987,0.137933 0.38148,-0.39752 0.95327,-1.198417 1.27064,-1.779773 0.31737,-0.581356 0.72062,-1.296607 0.89609,-1.589448 0.95376,-1.591663 3.37839,-6.054467 3.66808,-6.751513 0.43178,-1.038942 1.74154,-2.832367 2.0685,-2.832367 0.3203,0 4.32853,3.746351 6.90229,6.451338 5.32033,5.591574 10.2849,13.030315 13.60384,20.383526 2.25539,4.996865 5.10682,14.700624 5.52813,18.812873 0.13309,1.299053 0.11127,1.420621 -0.25666,1.429864 -1.17315,0.02947 -6.74014,-0.04988 -7.74976,-0.110462 -6.05963,-0.363608 -7.18028,-0.368004 -7.83251,-0.03073 -0.88337,0.456811 -0.96604,0.848302 -0.64308,3.045244 0.42418,2.885447 0.33611,12.60119 -0.13769,15.188729 -0.20376,1.112795 -0.42107,2.520889 -0.48291,3.129095 -0.10898,1.071761 -0.0903,1.119863 0.60508,1.561224 0.71038,0.450862 0.79559,0.45401 8.56465,0.3164 l 7.84713,-0.138994 -0.14341,0.707521 c -0.93508,4.613207 -2.80051,10.987239 -4.32081,14.763879 -0.85011,2.11181 -3.1968,6.87576 -4.50922,9.15405 -3.38403,5.87452 -7.01142,10.71515 -11.39184,15.202 -2.5324,2.59394 -7.14019,6.63183 -7.56783,6.63183 -0.12055,0 -0.44648,-0.45523 -0.72428,-1.01163 -0.2778,-0.5564 -1.38017,-2.6747 -2.44972,-4.70733 -1.06954,-2.03263 -1.94462,-3.73885 -1.94462,-3.79161 0,-0.0528 -0.2396,-0.44851 -0.53244,-0.87946 -0.29284,-0.43095 -0.53244,-0.94438 -0.53244,-1.14094 0,-0.19656 -0.38558,-0.84519 -0.85685,-1.44139 -1.22445,-1.54904 -1.71471,-1.5013 -4.14806,0.40387 -3.52367,2.75882 -8.56916,5.60163 -13.409282,7.55526 -2.570582,1.03757 -3.249796,1.39985 -3.51409,1.87433 -0.30107,0.5405 -0.294725,0.64404 0.07829,1.27785 0.223244,0.37933 0.759269,1.31264 1.191163,2.07402 2.774054,4.89039 3.854689,6.77213 5.136869,8.94496 1.30834,2.21718 1.41152,2.47486 1.08915,2.7199 -0.50006,0.38011 -4.514904,1.65314 -7.554541,2.39539 -3.297397,0.80519 -8.312953,1.63239 -11.556223,1.90592 -2.363508,0.19934 -9.526662,0.24569 -11.500656,0.0744 z m 0.204852,-7.78781 c 1.138299,-0.99526 1.056133,-2.83326 -0.159799,-3.57465 -0.822421,-0.50146 -1.452476,-0.52777 -2.288263,-0.0956 -1.108767,0.57336 -1.562272,1.99912 -0.973671,3.06109 0.627568,1.13227 2.451951,1.45704 3.421733,0.60912 z m 9.97871,-9.55556 c 0.766315,-0.3919 1.200852,-1.09786 1.20587,-1.9591 0.0063,-1.08906 -0.308533,-1.61121 -1.194989,-1.98159 -1.631708,-0.68177 -3.166264,0.27639 -3.166264,1.97698 0,0.81371 0.105186,1.05268 0.695529,1.58015 0.743818,0.66461 1.637741,0.80399 2.459854,0.38356 z m 0.03924,-8.93021 c 0.441941,-0.2161 0.659908,-0.49465 0.706984,-0.90347 0.09405,-0.81672 -0.553829,-2.66697 -1.021495,-2.91725 -0.21198,-0.11345 -2.796768,-0.24677 -5.74397,-0.29626 -6.164271,-0.10352 -5.959187,-0.16455 -6.423788,1.91151 -0.346048,1.54631 0.02215,2.1332 1.456769,2.32202 0.558619,0.0735 1.159428,0.16969 1.335133,0.21371 0.175704,0.044 2.284158,0.058 4.685452,0.0311 3.32543,-0.0373 4.518267,-0.1234 5.004915,-0.36137 z m 16.444705,-4.86688 c 2.968817,-1.46111 5.836157,-3.19847 6.822827,-4.13405 0.92578,-0.87784 0.89316,-1.48676 -0.13467,-2.5146 -1.05912,-1.05912 -1.86117,-1.09652 -3.33772,-0.15567 -2.45672,1.56541 -4.580489,2.74345 -5.89356,3.26911 -0.771813,0.30897 -1.579843,0.75706 -1.795623,0.99574 -0.490573,0.54264 -0.481852,2.16021 0.01685,3.12458 0.521938,1.00932 1.294784,0.90469 4.321901,-0.58511 z m -40.739296,0.54586 c 0.284878,-0.28488 0.6013,-0.98096 0.740078,-1.62806 0.293866,-1.37025 -0.0079,-1.98953 -1.215244,-2.49399 -0.866986,-0.36225 -4.709457,-2.71825 -6.274911,-3.84745 -0.558347,-0.40274 -1.373877,-0.78038 -1.812287,-0.83918 -0.699052,-0.0938 -0.913454,-0.004 -1.742852,0.73236 -0.789264,0.70041 -0.945739,0.96644 -0.945739,1.60789 0,0.45894 0.167322,0.95849 0.415301,1.23989 0.579118,0.65716 6.278206,4.36854 7.850189,5.11222 1.57796,0.74651 2.326129,0.77566 2.985465,0.11632 z m 74.097263,-4.42427 c 0.64904,-0.29572 0.9919,-1.02724 0.9919,-2.11628 0,-1.32225 -1.10044,-2.12691 -2.50519,-1.83186 -2.05888,0.43246 -1.90879,0.45508 -1.80212,-0.27167 0.13536,-0.92232 -0.32185,-1.89293 -1.0752,-2.2825 -0.6107,-0.3158 -1.16414,-0.30719 -2.55082,0.0397 -0.56911,0.14237 -0.58568,0.12124 -0.58568,-0.7466 0,-2.18983 -2.95941,-2.96966 -3.95601,-1.04243 -0.95812,1.85279 0.51377,3.77356 2.44768,3.19414 1.17521,-0.3521 1.29536,-0.31443 1.29536,0.40612 0,1.82727 1.83548,2.91139 3.4076,2.01269 0.9178,-0.52466 1.20344,-0.41474 1.10536,0.42537 -0.0478,0.40966 -0.0274,0.98227 0.0455,1.27247 0.24486,0.97556 1.9796,1.48856 3.18165,0.94086 z M 23.923059,115.10382 c 1.097123,-0.863 0.923597,-2.881 -0.302244,-3.5149 -0.965942,-0.49951 -1.84826,-0.39128 -2.552662,0.31312 -1.029336,1.02933 -0.743793,2.91643 0.518365,3.42578 0.792296,0.31973 1.763692,0.2266 2.336541,-0.224 z m 2.219304,-7.12415 c 0.338652,-0.3937 0.479526,-0.82998 0.479526,-1.48506 0,-0.77433 -0.108259,-1.01867 -0.655267,-1.47895 -1.419,-1.19401 -3.604235,-0.3462 -3.604235,1.39834 0,0.46584 0.09825,1.03055 0.218329,1.25492 0.617149,1.15316 2.682072,1.33332 3.561647,0.31075 z m 112.198237,0.0927 c 0.41244,-0.38747 0.51917,-0.70101 0.51917,-1.52517 0,-1.70095 -1.28791,-2.61557 -2.97241,-2.11088 -1.17984,0.35349 -1.2216,0.33043 -1.34241,-0.74134 -0.19265,-1.70924 -1.30772,-2.24705 -3.51201,-1.6939 -0.68812,0.17267 -0.69217,0.16905 -0.69217,-0.61964 0,-1.06063 -1.12155,-2.241565 -2.12884,-2.241565 -2.08068,0 -3.14578,2.425255 -1.70002,3.871005 0.56565,0.56566 0.75268,0.63045 1.54407,0.53491 0.49525,-0.0598 1.16401,-0.17628 1.48613,-0.25888 0.56969,-0.14606 0.58568,-0.12578 0.58568,0.74295 0,0.70958 0.1321,1.0252 0.64284,1.53594 0.57573,0.57574 0.74802,0.63246 1.65055,0.54346 0.55425,-0.0547 1.22337,-0.17081 1.48692,-0.25811 0.41827,-0.13854 0.4792,-0.0852 0.4792,0.41961 0,0.80735 0.57199,1.92656 1.12931,2.20972 0.7273,0.36952 2.22693,0.1528 2.82399,-0.40811 z m -21.60169,-1.53161 c 0.93713,-1.00806 3.61983,-5.10034 4.67038,-7.124331 1.11498,-2.148135 1.24976,-3.399602 0.41247,-3.83008 -0.29284,-0.150561 -1.0283,-0.27516 -1.63435,-0.276887 -1.33011,-0.0038 -1.40959,0.08099 -3.39097,3.617438 -0.75472,1.34707 -1.80164,3.02236 -2.32647,3.72288 -1.28013,1.70864 -1.30948,2.57421 -0.12739,3.75631 1.00795,1.00794 1.55588,1.03874 2.39633,0.13467 z m -77.203763,-0.81612 c 1.554144,-0.96052 1.746801,-2.06447 0.647879,-3.71244 -0.84267,-1.2637 -2.553518,-4.296492 -3.623648,-6.423587 -0.457456,-0.909282 -0.942268,-1.583078 -1.197308,-1.664026 -0.669421,-0.212466 -2.300853,0.10968 -2.885861,0.569849 -0.641784,0.504828 -0.720431,1.79127 -0.188013,3.075361 0.739024,1.782386 2.268381,4.651893 3.271975,6.139153 1.681526,2.49191 2.518054,2.91611 3.974976,2.01569 z m 59.137784,-0.31465 c -0.02257,-0.11018 -3.221477,-6.094411 -7.108684,-13.298294 -3.887206,-7.203883 -7.062056,-13.241727 -7.055222,-13.417432 0.0068,-0.175704 1.840039,-12.049086 4.073788,-26.385293 2.233749,-14.336204 4.061361,-26.155365 4.061361,-26.264798 0,-0.109433 -0.153195,-0.167982 -0.340436,-0.130108 -0.464237,0.0939 -21.030422,48.319565 -20.733047,48.61694 0.138421,0.138421 0.409059,0.08075 0.791795,-0.168714 0.319818,-0.20846 1.204442,-0.681056 1.965828,-1.050213 3.585707,-1.738522 7.32522,-0.19835 9.189095,3.784662 0.625972,1.337671 0.636399,1.412391 0.407883,2.922728 -0.627058,4.144406 -2.843243,6.140477 -7.208323,6.492391 -0.853264,0.06879 -1.524135,0.19997 -1.490826,0.291511 0.148729,0.408755 22.883443,18.92484 23.168359,18.86926 0.175704,-0.0343 0.300998,-0.15246 0.278429,-0.26264 z m -71.530228,-3.71441 c 0.150151,0 0.525669,-0.25267 0.834483,-0.56148 0.425874,-0.42588 0.561479,-0.77449 0.561479,-1.443442 0,-1.134158 -0.446174,-1.753786 -1.487501,-2.065775 -1.506237,-0.45128 -2.772001,0.519962 -2.772001,2.126999 0,1.119888 1.32948,2.284188 2.306902,2.020278 0.156,-0.0421 0.406488,-0.0766 0.556638,-0.0766 z M 125.71732,84.139224 c 0.55493,-0.554924 0.86638,-4.127818 0.71338,-8.183543 -0.16982,-4.501466 -0.29275,-4.825301 -1.76851,-4.658963 -0.56064,0.06319 -1.14964,0.294493 -1.43674,0.564205 -0.4748,0.446055 -0.48953,0.586738 -0.60917,5.819805 -0.0781,3.41381 -0.0451,5.507511 0.0906,5.76117 0.44593,0.833221 2.41776,1.289974 3.0104,0.697326 z M 79.183655,83.349065 c 1.362879,-0.659759 2.172838,-2.008319 2.172838,-3.617717 0,-1.485188 -0.194991,-2.037026 -1.073218,-3.037272 -1.365064,-1.554721 -3.961661,-1.737775 -5.714052,-0.402828 -1.649185,1.256328 -2.024963,4.14843 -0.747647,5.754145 1.32632,1.66732 3.512769,2.198906 5.362079,1.303672 z M 31.104204,82.741617 c 1.559184,-0.433149 1.533732,-0.357289 1.506096,-4.488663 -0.01365,-2.041416 0.06337,-4.526294 0.171159,-5.521953 0.232141,-2.144227 0.06076,-2.560438 -1.211234,-2.941536 -1.728902,-0.517991 -2.70465,-0.248872 -3.094573,0.853517 -0.328175,0.927809 -0.585505,6.589386 -0.40396,8.887656 0.178999,2.26606 0.231846,2.467717 0.767432,2.928408 0.629111,0.541138 1.115787,0.601853 2.26508,0.282571 z M 122.70953,59.575871 c 0.67017,-0.670173 -0.41375,-3.554674 -2.90452,-7.729414 -2.3271,-3.900433 -2.96296,-4.316456 -4.37331,-2.86134 -1.04749,1.080727 -0.98523,1.809818 0.32128,3.762401 0.57452,0.858625 1.60528,2.661572 2.29057,4.00655 1.65234,3.242923 1.67294,3.263256 3.19518,3.153148 0.67557,-0.04887 1.33742,-0.197971 1.4708,-0.331345 z M 36.248992,58.450402 c 0.286578,-0.131359 0.876216,-0.94736 1.423528,-1.97002 0.513873,-0.960179 1.687898,-2.903181 2.608945,-4.317783 2.074195,-3.185681 2.141921,-3.651731 0.721002,-4.961487 -1.241596,-1.144464 -1.83414,-1.152168 -2.894374,-0.03763 -1.999004,2.101387 -5.522901,8.160714 -5.522901,9.496602 0,0.853072 0.554502,1.51449 1.432164,1.708306 0.325105,0.07179 0.686939,0.162504 0.804075,0.201579 0.428732,0.143017 0.949929,0.09936 1.427561,-0.119569 z m 94.282178,-2.451637 c 1.7751,-1.493642 0.89185,-3.92635 -1.42554,-3.92635 -1.69701,0 -2.6774,1.640415 -1.9433,3.251585 0.56201,1.233479 2.29284,1.580158 3.36884,0.674765 z m 8.93441,-4.678033 c 0.23306,-0.296289 0.48897,-0.924734 0.56868,-1.396544 0.28225,-1.670657 -0.66879,-2.750201 -2.42283,-2.750201 -0.68049,0 -0.95012,0.126659 -1.39491,0.655267 -0.54636,0.649302 -0.6634,1.084395 -0.56853,2.11341 0.14474,1.569935 2.88779,2.560118 3.81759,1.378068 z M 26.572877,47.58511 c 1.313867,-0.458015 1.679019,-2.444304 0.650599,-3.539007 -1.303329,-1.387331 -3.796214,-0.34193 -3.796214,1.591961 0,0.917518 0.294191,1.450616 1.016986,1.842863 0.699913,0.379829 1.259365,0.407211 2.128629,0.104183 z m 98.844573,-0.332469 c 0.66811,-0.467964 1.11554,-1.60035 0.95315,-2.412307 -0.1798,-0.898964 -1.19303,-1.712874 -2.13235,-1.712874 -1.04515,0 -1.99054,0.958169 -1.99054,2.017458 0,0.883334 0.46534,1.906798 1.01163,2.224983 0.56396,0.328478 1.60227,0.272063 2.15811,-0.11726 z m 8.45191,-4.862929 c 1.42403,-0.594995 1.77108,-2.794717 0.58778,-3.725501 -0.67438,-0.53047 -2.31056,-0.589421 -2.99787,-0.10801 -1.24381,0.871202 -0.98803,3.213722 0.4176,3.824439 0.89201,0.387561 1.08454,0.388439 1.99249,0.0091 z m -26.80355,-2.288306 c 0.95866,-0.929173 1.05779,-1.37018 0.45348,-2.017484 -1.51437,-1.622123 -8.666497,-5.818192 -9.917011,-5.818192 -0.824631,0 -1.24942,0.541246 -1.459938,1.860188 -0.204967,1.284178 0.188664,1.750854 2.509482,2.975158 1.088405,0.574166 2.676607,1.518078 3.529337,2.097579 3.04446,2.068975 3.57941,2.16784 4.88465,0.902751 z M 52.453606,39.690677 c 0.493163,-0.250323 1.615451,-0.91049 2.493973,-1.467039 0.878522,-0.556549 2.476553,-1.416489 3.551181,-1.910979 1.506891,-0.693396 2.009646,-1.033732 2.197692,-1.487714 0.273886,-0.66122 0.114792,-1.903693 -0.36503,-2.850749 -0.287785,-0.568019 -0.380108,-0.604214 -1.312609,-0.514613 -1.482268,0.142427 -5.576073,2.171918 -9.00782,4.465598 -1.798085,1.201789 -1.898034,2.085465 -0.389975,3.447907 0.994042,0.898057 1.56327,0.961877 2.832588,0.317589 z m 31.75673,-7.916703 c 0.677845,-0.677844 1.145576,-2.628279 0.729955,-3.0439 -0.40232,-0.40232 -2.961197,-0.862743 -5.713549,-1.02805 -2.5545,-0.153425 -6.471166,0.143275 -6.931186,0.525058 -0.396008,0.328657 -0.400455,1.706012 -0.0085,2.644008 0.466797,1.117199 0.934597,1.258431 3.7347,1.127539 1.352786,-0.06324 3.226319,-0.04347 4.16341,0.04392 3.133353,0.292219 3.488083,0.268549 4.025206,-0.268575 z m 1.146047,-9.171408 c 0.583209,-0.5715 0.805529,-1.721207 0.491157,-2.539963 -0.288656,-0.75178 -1.512109,-1.301155 -2.489373,-1.117819 -1.384432,0.259721 -2.233972,2.081165 -1.558954,3.342449 0.568646,1.062523 2.610006,1.243486 3.55717,0.315333 z M 75.196597,22.485257 c 1.389264,-1.389264 0.429935,-3.644695 -1.54407,-3.630186 -1.398403,0.01028 -2.092889,0.750874 -2.092889,2.231847 0,1.833732 2.312469,2.722831 3.636959,1.398339 z m 5.111402,-4.898428 c 0.83317,-0.833168 0.862019,-2.041826 0.07118,-2.981693 -0.475322,-0.564888 -0.693021,-0.655266 -1.578382,-0.655266 -0.885361,0 -1.10306,0.09038 -1.578382,0.655266 -1.244395,1.47888 -0.313651,3.604236 1.578382,3.604236 0.693821,0 1.018964,-0.134298 1.507207,-0.622543 z m 5.36124,-5.123748 c 1.539252,-1.707455 -0.168632,-4.028861 -2.492092,-3.3873229 -0.923049,0.254866 -1.394704,0.9011635 -1.394704,1.9111269 0,2.084313 2.487058,3.028891 3.886796,1.476196 z m -10.472642,0.01235 c 0.487706,-0.487706 0.622543,-0.813638 0.622543,-1.504827 0,-1.1642519 -0.30124,-1.6758106 -1.210567,-2.0557516 -0.981219,-0.4099791 -1.835763,-0.2076233 -2.510741,0.5945421 -1.746628,2.0757505 1.183974,4.8808275 3.098765,2.9660365 z"
     id="path924"
     transform="scale(12.499965)" />
  <path
     style="fill:#ffffff;stroke:none;stroke-width:0.0941786;stroke-miterlimit:0"
     d="M 10.222805,86.951388 C 8.8757376,86.861459 6.7479012,86.760394 5.4942797,86.726797 4.2406581,86.693202 3.1649504,86.615697 3.103818,86.554564 3.0426855,86.493432 2.8781671,85.490534 2.7382217,84.325903 2.360849,81.185394 2.4224166,72.581869 2.8471052,69.110423 3.3631905,64.89189 3.3686553,64.871249 4.0173578,64.690276 c 0.3088839,-0.08617 3.3888516,-0.147628 6.8443732,-0.136572 6.468226,0.0207 8.577013,0.225114 8.818665,0.85485 0.06799,0.177169 -0.02091,1.15089 -0.197554,2.163825 -0.89514,5.133114 -0.984031,13.801762 -0.185355,18.07578 0.09521,0.509488 0.01777,0.778729 -0.32159,1.118085 -0.416072,0.416073 -0.649592,0.443596 -3.375437,0.397825 -1.610643,-0.02705 -4.030587,-0.12275 -5.377655,-0.212681 z"
     id="path1075"
     transform="scale(12.499965)" />
  <path
     style="fill:#ffffff;stroke:none;stroke-width:0.0941786;stroke-miterlimit:0"
     d="m 39.017802,30.615172 c -0.226379,-0.322125 -0.865555,-1.448231 -1.420391,-2.502458 -0.554836,-1.054226 -1.178195,-2.108453 -1.385242,-2.342726 -0.207047,-0.234273 -0.444409,-0.713467 -0.52747,-1.064875 -0.08306,-0.351409 -0.378041,-0.937303 -0.655512,-1.301987 -0.277471,-0.364683 -0.570109,-0.939716 -0.650307,-1.27785 -0.0802,-0.338135 -0.364076,-0.908396 -0.630839,-1.267248 -0.266763,-0.358852 -0.639233,-0.981804 -0.827712,-1.384338 -0.188479,-0.402534 -0.508708,-0.999174 -0.71162,-1.325866 -0.440355,-0.708981 -0.593374,-0.55801 3.145159,-3.103068 4.397237,-2.993479 9.03723,-5.5057964 13.682495,-7.4083671 2.091501,-0.8566203 2.405804,-0.9316462 2.953142,-0.7049314 0.461376,0.1911081 0.667769,0.4708486 0.836377,1.1336076 0.41479,1.6304355 2.326233,5.7398309 3.282101,7.0561679 0.903594,1.244344 2.886122,4.895233 2.886122,5.314884 0,0.392514 -0.728411,0.777127 -3.090461,1.631817 -2.316813,0.838321 -7.540783,3.488764 -9.591254,4.866237 -0.86221,0.579218 -2.541784,1.776175 -3.732388,2.659902 -1.231458,0.914053 -2.377251,1.60678 -2.657668,1.60678 -0.295982,0 -0.657389,-0.23401 -0.904532,-0.585681 z"
     id="path1077"
     transform="scale(12.499965)" />
  <path
     style="fill:#ffffff;stroke:none;stroke-width:0.0941786;stroke-miterlimit:0"
     d="m 114.75986,31.064586 c -2.63283,-2.095686 -4.86371,-3.619946 -7.84361,-5.359163 -2.6164,-1.527063 -6.5879,-3.449524 -7.126177,-3.449524 -0.493072,0 -1.395644,-0.872965 -1.392223,-1.346552 0.0044,-0.60399 5.88706,-10.230866 6.89182,-11.2782689 0.462,-0.4816093 0.77193,-1.016052 0.77193,-1.3310945 0,-0.8765109 0.44851,-0.7363262 5.14171,1.6070781 4.8501,2.4217493 10.06682,5.7603643 13.68018,8.7550893 0.10261,0.08504 -0.23857,0.808628 -0.75817,1.607967 -0.5196,0.799338 -1.05062,1.703478 -1.18004,2.009198 -0.32151,0.75949 -3.40994,6.342828 -4.52263,8.176124 -0.85251,1.404622 -1.38255,2.023264 -1.73348,2.023264 -0.084,0 -0.9522,-0.636353 -1.92931,-1.414118 z"
     id="path1079"
     transform="scale(12.499965)" />
  <path
     style="fill:#ffffff;stroke:none;stroke-width:0.0941786;stroke-miterlimit:0"
     d="m 136.3841,89.124816 c -0.90776,-0.281046 -1.21157,-0.709201 -1.08982,-1.535869 0.0563,-0.382307 0.27436,-1.797249 0.48456,-3.144317 0.49572,-3.176905 0.56594,-11.908588 0.11958,-14.869397 -0.29085,-1.92927 -0.28687,-1.996698 0.14339,-2.42696 0.44075,-0.440749 0.46852,-0.441449 6.79491,-0.171315 3.49379,0.149183 7.03765,0.235008 7.87524,0.190722 l 1.52289,-0.08052 0.1194,0.958388 c 0.0657,0.527113 0.23816,2.80225 0.38331,5.055859 0.27589,4.283506 0.0477,10.391946 -0.52872,14.152937 l -0.2511,1.638349 -5.32438,0.11766 c -2.92841,0.06471 -6.28276,0.163293 -7.45413,0.219065 -1.17136,0.05577 -2.42917,0.0087 -2.79513,-0.104602 z"
     id="path1081"
     transform="scale(12.499965)" />
  <path
     style="fill:#ffffff;stroke:none;stroke-width:0.0941786;stroke-miterlimit:0"
     d="m 102.70084,144.9828 c -0.81282,-1.37635 -2.03659,-3.50876 -2.719495,-4.73869 -0.682901,-1.22993 -1.493753,-2.6196 -1.801894,-3.08814 -1.071985,-1.63001 -2.11577,-3.72326 -2.003052,-4.01699 0.122654,-0.31964 0.431553,-0.46542 4.134881,-1.95148 1.34706,-0.54055 3.31176,-1.43646 4.36599,-1.99092 2.24858,-1.18263 7.16312,-4.33919 8.83846,-5.67687 0.64425,-0.5144 1.36649,-0.93916 1.60498,-0.9439 0.47331,-0.009 1.80165,1.5417 1.80403,2.10659 7.6e-4,0.18369 0.19818,0.6215 0.43868,0.97291 0.24051,0.35141 0.66889,1.11812 0.95196,1.7038 0.28308,0.58569 1.20008,2.3587 2.03779,3.94004 0.83771,1.58134 1.79458,3.417 2.12639,4.07923 0.33181,0.66224 0.71675,1.24189 0.85543,1.28812 0.42999,0.14332 -4.76953,3.77758 -8.22194,5.74682 -3.27186,1.86625 -10.05209,5.07194 -10.72745,5.07194 -0.11379,0 -0.87194,-1.1261 -1.68476,-2.50246 z"
     id="path1083"
     transform="scale(12.499965)" />
  <path
     style="fill:#ffffff;stroke:none;stroke-width:0.0941786;stroke-miterlimit:0"
     d="m 44.966491,144.93107 c -3.274515,-1.60154 -6.187415,-3.25307 -8.760723,-4.96707 -2.618041,-1.7438 -6.389253,-4.62551 -6.389253,-4.88225 0,-0.13155 0.561479,-1.20416 1.247731,-2.38359 0.686252,-1.17943 1.710058,-2.95905 2.275124,-3.95471 3.225582,-5.68354 4.393664,-7.45413 4.917606,-7.45413 0.179151,0 1.348299,0.78292 2.598106,1.73982 2.786752,2.13364 4.552835,3.35678 6.638367,4.59753 2.00464,1.19262 7.085003,3.74028 8.145638,4.0848 0.438897,0.14256 0.936718,0.45726 1.106267,0.69933 0.276486,0.39473 0.253779,0.54765 -0.22021,1.48302 -0.290664,0.5736 -0.836404,1.46188 -1.212755,1.97396 -0.37635,0.51207 -1.01971,1.53038 -1.429687,2.2629 -0.409977,0.73252 -1.152727,1.94125 -1.650557,2.68607 -0.497829,0.74481 -0.905144,1.43742 -0.905144,1.53912 0,0.1017 -0.291256,0.55466 -0.647236,1.00659 -0.355979,0.45193 -0.954972,1.29995 -1.331094,1.8845 -0.376122,0.58455 -0.827617,1.08928 -1.003321,1.12163 -0.175705,0.0323 -1.696191,-0.61454 -3.378859,-1.43752 z"
     id="path1085"
     transform="scale(12.499965)" />
  <path
     style="fill:#ffffff;stroke:none;stroke-width:0.0941786;stroke-miterlimit:0"
     d="m 21.557874,114.56853 c -0.3333,-0.23345 -0.473338,-0.5485 -0.473338,-1.06487 0,-1.43865 1.558299,-2.11449 2.518576,-1.09232 1.302369,1.38631 -0.472755,3.2586 -2.045238,2.15719 z"
     id="path1087"
     transform="scale(12.499965)" />
  <path
     style="fill:#ffffff;stroke:none;stroke-width:0.0941786;stroke-miterlimit:0"
     d="m 23.746725,107.83037 c -0.596361,-0.33817 -0.738407,-0.60306 -0.742152,-1.38398 -0.0039,-0.81556 0.627899,-1.34317 1.608432,-1.34317 0.832259,0 1.369958,0.57082 1.369958,1.45435 0,1.21862 -1.163727,1.88099 -2.236238,1.2728 z"
     id="path1089"
     transform="scale(12.499965)" />
  <path
     style="fill:#ffffff;stroke:none;stroke-width:0.0941786;stroke-miterlimit:0"
     d="m 25.440845,100.74691 c -0.670791,-0.67079 -0.683274,-1.594925 -0.02984,-2.208798 0.552988,-0.519505 0.951163,-0.572278 1.709812,-0.226614 1.093619,0.498286 1.149853,1.886102 0.106048,2.617212 -0.680405,0.47657 -1.178331,0.42589 -1.786023,-0.1818 z"
     id="path1091"
     transform="scale(12.499965)" />
  <path
     style="fill:#ffffff;stroke:none;stroke-width:0.0941786;stroke-miterlimit:0"
     d="m 24.532296,46.73974 c -0.460953,-0.429444 -0.590308,-1.124033 -0.333813,-1.79245 0.148133,-0.386028 1.156374,-0.96793 1.677097,-0.96793 0.530054,0 1.385234,0.986108 1.385234,1.597313 0,0.740778 -0.886912,1.597313 -1.653961,1.597313 -0.334646,0 -0.818197,-0.195411 -1.074557,-0.434246 z"
     id="path1093"
     transform="scale(12.499965)" />
  <path
     style="fill:#ffffff;stroke:none;stroke-width:0.0941786;stroke-miterlimit:0"
     d="m 72.721319,11.936287 c -0.666245,-0.666245 -0.666245,-1.482868 0,-2.1491127 0.64996,-0.6499605 1.214306,-0.662875 1.903638,-0.043563 0.770353,0.6921027 0.821477,1.5973117 0.129306,2.2894827 -0.575615,0.575615 -1.399768,0.536369 -2.032944,-0.09681 z"
     id="path1095"
     transform="scale(12.499965)" />
  <path
     style="fill:#ffffff;stroke:none;stroke-width:0.0941786;stroke-miterlimit:0"
     d="m 72.61261,22.076112 c -1.060946,-0.859102 -0.317493,-2.659881 1.098134,-2.659881 0.827401,0 1.469469,0.692727 1.469469,1.585411 0,1.274275 -1.530108,1.914583 -2.567603,1.07447 z"
     id="path1097"
     transform="scale(12.499965)" />
  <path
     style="fill:#ffffff;stroke:none;stroke-width:0.0941786;stroke-miterlimit:0"
     d="m 77.724013,17.177685 c -1.04376,-0.845186 -0.319079,-2.659882 1.062197,-2.659882 0.930248,0 1.505406,0.604708 1.505406,1.58275 0,0.592307 -0.125847,0.894961 -0.473339,1.138354 -0.63393,0.444022 -1.501639,0.418656 -2.094264,-0.06122 z"
     id="path1099"
     transform="scale(12.499965)" />
  <path
     style="fill:#ffffff;stroke:none;stroke-width:0.0941786;stroke-miterlimit:0"
     d="m 82.944124,12.149262 c -1.060913,-1.060913 -0.516767,-2.5557014 0.93035,-2.5557014 1.622824,0 2.317582,1.4568814 1.218763,2.5557014 -0.666245,0.666244 -1.482869,0.666244 -2.149113,0 z"
     id="path1101"
     transform="scale(12.499965)" />
  <path
     style="fill:#ffffff;stroke:none;stroke-width:0.0941786;stroke-miterlimit:0"
     d="m 82.769551,22.240441 c -0.733569,-0.577025 -0.749788,-1.519076 -0.0384,-2.230461 0.63886,-0.63886 1.366308,-0.666897 2.11071,-0.08135 0.733569,0.577026 0.749788,1.519076 0.0384,2.230462 -0.638859,0.63886 -1.366307,0.666896 -2.11071,0.08135 z"
     id="path1103"
     transform="scale(12.499965)" />
  <path
     style="fill:#ffffff;stroke:none;stroke-width:0.0941786;stroke-miterlimit:0"
     d="m 132.11297,41.809413 c -0.25522,-0.123388 -0.58377,-0.513409 -0.73011,-0.866713 -0.21982,-0.53068 -0.21185,-0.739124 0.0458,-1.198826 0.46786,-0.834703 1.34531,-1.191302 2.13076,-0.865955 1.19391,0.494531 1.37523,1.605181 0.41829,2.562122 -0.65366,0.653651 -1.09566,0.741203 -1.86476,0.369372 z"
     id="path1105"
     transform="scale(12.499965)" />
  <path
     style="fill:#ffffff;stroke:none;stroke-width:0.0941786;stroke-miterlimit:0"
     d="m 123.32088,46.494902 c -0.61171,-0.656595 -0.59052,-1.955981 0.0391,-2.396978 0.68836,-0.482152 1.38693,-0.407399 2.00935,0.215016 0.44086,0.440864 0.52124,0.677676 0.41563,1.224607 -0.25475,1.319297 -1.62933,1.853354 -2.46408,0.957355 z"
     id="path1107"
     transform="scale(12.499965)" />
  <path
     style="fill:#ffffff;stroke:none;stroke-width:0.0941786;stroke-miterlimit:0"
     d="m 128.40224,55.632795 c -0.60262,-0.404833 -0.73458,-0.635679 -0.78895,-1.380146 -0.0594,-0.813229 -0.002,-0.932791 0.63893,-1.323346 0.93933,-0.572696 1.11375,-0.549295 2.00694,0.269251 0.75773,0.694404 0.76146,0.706362 0.45188,1.447293 -0.25395,0.607793 -1.13661,1.473094 -1.50265,1.473094 -0.0454,0 -0.40813,-0.218766 -0.80615,-0.486146 z"
     id="path1109"
     transform="scale(12.499965)" />
  <path
     style="fill:#ffffff;stroke:none;stroke-width:0.0941786;stroke-miterlimit:0"
     d="m 137.22163,51.005495 c -1.19928,-0.483073 -1.39179,-1.885813 -0.39554,-2.882067 0.4322,-0.432202 0.60344,-0.476383 1.19205,-0.307571 1.43005,0.410134 1.78099,1.208474 1.17196,2.666084 -0.25086,0.600393 -0.4202,0.736047 -0.90514,0.725073 -0.32811,-0.0074 -0.8066,-0.09811 -1.06333,-0.201519 z"
     id="path1111"
     transform="scale(12.499965)" />
  <path
     style="fill:#ffffff;stroke:none;stroke-width:0.0166486;stroke-miterlimit:0"
     d="m 127.61141,103.08663 c -0.60988,-0.15066 -1.05127,-0.5818 -1.18369,-1.15618 -0.0641,-0.27819 -0.0485,-0.86482 0.0297,-1.11612 0.13372,-0.42965 0.44086,-0.75536 0.93438,-0.990903 0.29801,-0.142229 0.56095,-0.182588 0.91446,-0.140367 0.60523,0.07228 1.03929,0.3691 1.30061,0.88939 0.35023,0.69729 0.24051,1.53813 -0.26912,2.06251 -0.37953,0.3905 -1.15384,0.59309 -1.72632,0.45167 z"
     id="path1113"
     transform="scale(12.499965)" />
  <path
     style="fill:#ffffff;stroke:none;stroke-width:0.0166486;stroke-miterlimit:0"
     d="m 131.69166,105.6149 c -0.62652,-0.21906 -0.95095,-0.64504 -1.05974,-1.39147 -0.0822,-0.56411 0.0656,-1.09305 0.40764,-1.45873 0.31687,-0.33875 0.77307,-0.48926 1.48655,-0.49044 0.67274,-0.001 0.9704,0.12032 1.22897,0.50137 0.53616,0.79012 0.40943,2.05913 -0.25834,2.58698 -0.29882,0.2362 -0.54118,0.30886 -1.08508,0.32528 -0.41738,0.0126 -0.49883,0.004 -0.72,-0.073 z"
     id="path1116"
     transform="scale(12.499965)" />
  <path
     style="fill:#ffffff;stroke:none;stroke-width:0.0166486;stroke-miterlimit:0"
     d="m 136.13891,108.13573 c -0.58981,-0.16903 -1.01699,-0.63279 -1.18479,-1.28626 -0.11783,-0.45887 -0.0381,-1.02731 0.18511,-1.31997 0.25093,-0.32898 0.50754,-0.49016 1.01413,-0.63696 0.91393,-0.26485 1.69396,0.0548 2.07524,0.85041 0.22325,0.46585 0.26961,1.16847 0.10209,1.54719 -0.14728,0.33295 -0.50663,0.64635 -0.90293,0.78748 -0.27394,0.0975 -1.03197,0.13173 -1.28885,0.0581 z"
     id="path1118"
     transform="scale(12.499965)" />
  <path
     style="fill:#ffffff;stroke:none;stroke-width:0.0166486;stroke-miterlimit:0"
     d="m 130.95697,116.93814 c -0.66936,-0.14557 -1.13755,-0.62209 -1.25953,-1.28194 -0.07,-0.37885 0.0505,-0.86997 0.30814,-1.25584 0.47336,-0.70885 1.39553,-0.9467 2.20742,-0.56935 0.67699,0.31465 0.98715,1.00276 0.82468,1.82963 -0.11634,0.59211 -0.33736,0.91663 -0.75852,1.11371 -0.43552,0.20381 -0.88317,0.25926 -1.32219,0.16379 z"
     id="path1120"
     transform="scale(12.499965)" />
  <path
     style="fill:#ffffff;stroke:none;stroke-width:0.0166486;stroke-miterlimit:0"
     d="m 126.55723,114.34569 c -0.65318,-0.21595 -1.10589,-0.72318 -1.22204,-1.3692 -0.12464,-0.69328 0.28899,-1.50948 0.92687,-1.82897 0.36253,-0.18158 0.56092,-0.22581 0.88577,-0.19747 0.39609,0.0345 0.61044,0.10206 0.88267,0.27801 0.54321,0.3511 0.82229,1.08371 0.67637,1.77552 -0.12308,0.58351 -0.43908,1.01476 -0.91538,1.24925 -0.23532,0.11585 -0.284,0.12559 -0.66873,0.13379 -0.26604,0.006 -0.46897,-0.009 -0.56553,-0.0409 z"
     id="path1122"
     transform="scale(12.499965)" />
  <path
     style="fill:#ffffff;stroke:none;stroke-width:0.0166486;stroke-miterlimit:0"
     d="m 122.50996,111.74733 c -0.61368,-0.13387 -1.04707,-0.61533 -1.19283,-1.32514 -0.0514,-0.25037 -0.0544,-0.34755 -0.0183,-0.59995 0.13256,-0.92811 0.85307,-1.49536 1.83084,-1.4414 0.22875,0.0126 0.34871,0.0405 0.49096,0.11391 0.84387,0.43575 1.15606,1.47161 0.71139,2.36045 -0.23801,0.47576 -0.67196,0.80924 -1.17789,0.90518 -0.25014,0.0474 -0.3788,0.0448 -0.64415,-0.013 z"
     id="path1124"
     transform="scale(12.499965)" />
  <path
     style="fill:#ffffff;stroke:none;stroke-width:0.0665943;stroke-miterlimit:0"
     d="m 81.079174,134.41006 c -0.531157,-0.21461 -0.962026,-0.89436 -0.962026,-1.51772 0,-1.66876 2.347138,-2.20727 3.06127,-0.70234 0.310438,0.6542 0.311583,0.76558 0.01431,1.39203 -0.362929,0.76482 -1.331175,1.14415 -2.113558,0.82803 z"
     id="path1126"
     transform="scale(12.499965)" />
  <path
     style="fill:#ffffff;stroke:none;stroke-width:0.0665943;stroke-miterlimit:0"
     d="m 70.391696,144.06246 c -1.721433,-1.04973 -0.16165,-3.66167 1.668134,-2.79339 0.887188,0.421 1.197573,1.31483 0.754265,2.17209 -0.46957,0.90805 -1.513207,1.17572 -2.422399,0.6213 z"
     id="path1128"
     transform="scale(12.499965)" />
  <path
     style="fill:#ffffff;stroke:none;stroke-width:0.0665943;stroke-miterlimit:0"
     d="m 25.716185,101.04016 c -0.452225,-0.24537 -0.867821,-0.92579 -0.867821,-1.420811 0,-0.441922 0.399113,-1.165981 0.744639,-1.350901 0.159353,-0.08528 0.570474,-0.155061 0.913602,-0.155061 1.653558,0 2.094853,2.163973 0.599038,2.937483 -0.539236,0.27885 -0.860367,0.27638 -1.389458,-0.0107 z"
     id="path1130"
     transform="scale(12.499965)" />
  <path
     style="fill:#ffffff;stroke:none;stroke-width:0.0665943;stroke-miterlimit:0"
     d="m 24.010037,107.96564 c -0.750998,-0.2571 -1.119423,-0.70805 -1.119423,-1.37015 0,-0.67803 0.208664,-1.04731 0.749966,-1.32723 1.154719,-0.59713 2.412553,0.0528 2.412553,1.24662 0,1.1469 -0.953324,1.82383 -2.043096,1.45076 z"
     id="path1132"
     transform="scale(12.499965)" />
  <path
     style="fill:#ffffff;stroke:none;stroke-width:0.0665943;stroke-miterlimit:0"
     d="m 21.71974,114.67833 c -0.6521,-0.39758 -0.86181,-0.95517 -0.639673,-1.70078 0.354105,-1.18856 1.761538,-1.49177 2.601177,-0.56038 0.66411,0.73668 0.48363,1.91177 -0.360682,2.34839 -0.566852,0.29313 -1.017232,0.26859 -1.600822,-0.0872 z"
     id="path1134"
     transform="scale(12.499965)" />
  <path
     style="fill:#ffffff;stroke:none;stroke-width:0.0665943;stroke-miterlimit:0"
     d="m 37.950228,105.53949 c -0.124242,-0.0474 -0.354713,-0.19595 -0.512159,-0.33009 -0.580343,-0.49444 -2.722104,-3.91623 -3.64031,-5.815945 -1.854299,-3.836446 -1.82769,-4.501199 0.194612,-4.861946 1.025595,-0.18295 1.372718,-0.0045 1.845046,0.948685 0.93431,1.885426 2.632334,4.944406 3.467523,6.246726 0.50435,0.78643 0.958431,1.59496 1.009069,1.79671 0.22478,0.8956 -1.482933,2.35195 -2.363781,2.01586 z"
     id="path1136"
     transform="scale(12.499965)" />
  <path
     style="fill:#ffffff;stroke:none;stroke-width:0.0665943;stroke-miterlimit:0"
     d="m 29.091169,81.923295 c -0.393837,-0.500683 -0.52608,-1.865595 -0.510584,-5.269858 0.01289,-2.831787 0.322992,-5.798415 0.646904,-6.188705 0.422776,-0.509414 0.726948,-0.546472 1.802928,-0.219653 0.60343,0.183286 1.100392,0.429599 1.184737,0.587198 0.09389,0.175442 0.08974,0.800246 -0.01173,1.766251 -0.08636,0.822126 -0.167085,3.220904 -0.179382,5.330618 L 32.001682,81.76499 31.324,82.024701 c -1.035615,0.396883 -1.870708,0.358957 -2.232829,-0.101406 z"
     id="path1138"
     transform="scale(12.499965)" />
  <path
     style="fill:#ffffff;stroke:none;stroke-width:0.0665943;stroke-miterlimit:0"
     d="m 34.260623,57.827966 c -1.217508,-0.431772 -1.391719,-1.2274 -0.607578,-2.774828 1.353007,-2.67003 4.327829,-7.068464 5.295432,-7.829581 0.598232,-0.47057 0.943156,-0.387262 1.715884,0.41443 1.14282,1.185656 1.148258,1.158353 -0.800258,4.01846 -0.64534,0.947255 -1.635727,2.588038 -2.200859,3.646185 -0.565132,1.058146 -1.201807,2.110265 -1.414833,2.338042 -0.443869,0.474603 -1.023604,0.529226 -1.987788,0.187292 z"
     id="path1140"
     transform="scale(12.499965)" />
  <path
     style="fill:#ffffff;stroke:none;stroke-width:0.0665943;stroke-miterlimit:0"
     d="m 49.925559,38.848787 c -0.983023,-1.011457 -1.00429,-1.220807 -0.197837,-1.94752 0.727604,-0.65566 5.356392,-3.358104 7.19762,-4.202216 0.621209,-0.284793 1.432259,-0.598682 1.802332,-0.69753 0.641605,-0.171376 0.688377,-0.161687 1.006873,0.208588 0.348071,0.404656 0.565633,1.374139 0.479043,2.134667 -0.04655,0.408868 -0.235746,0.535916 -2.459969,1.651931 -1.325246,0.664949 -2.989344,1.588668 -3.697996,2.05271 -2.681713,1.756047 -3.118179,1.840524 -4.130066,0.79937 z"
     id="path1142"
     transform="scale(12.499965)" />
  <path
     style="fill:#ffffff;stroke:none;stroke-width:0.0665943;stroke-miterlimit:0"
     d="m 80.870129,31.531013 c -0.704037,-0.06941 -2.658683,-0.110493 -4.343659,-0.09131 l -3.063591,0.03489 -0.359939,-0.451086 c -0.197966,-0.248097 -0.440314,-0.810239 -0.53855,-1.249205 -0.149926,-0.669937 -0.143145,-0.833587 0.04222,-1.01895 0.731764,-0.731764 9.051808,-0.610195 11.600372,0.169499 0.137297,0.042 0.27974,0.158502 0.316541,0.258884 0.118501,0.323239 -0.366973,1.748595 -0.728396,2.138577 -0.388641,0.419351 -0.620435,0.435889 -2.924997,0.2087 z"
     id="path1144"
     transform="scale(12.499965)" />
  <path
     style="fill:#ffffff;stroke:none;stroke-width:0.0665943;stroke-miterlimit:0"
     d="m 105.04081,40.290856 c -0.16566,-0.06727 -1.15233,-0.696948 -2.19261,-1.399283 -1.04029,-0.702335 -2.7164,-1.697571 -3.72471,-2.211637 -2.197542,-1.120374 -2.506708,-1.44124 -2.385716,-2.47601 0.09881,-0.845064 0.43837,-1.449318 0.81435,-1.449146 0.683534,3.12e-4 5.251846,2.569833 7.799656,4.387042 0.94594,0.674691 1.80001,1.323238 1.89792,1.441215 0.14412,0.173649 0.0368,0.353276 -0.56364,0.943079 -0.79771,0.783621 -1.17122,0.957236 -1.64525,0.76474 z"
     id="path1146"
     transform="scale(12.499965)" />
  <path
     style="fill:#ffffff;stroke:none;stroke-width:0.0665943;stroke-miterlimit:0"
     d="m 120.14341,59.250504 c -0.14202,-0.08278 -0.76534,-1.181956 -1.38516,-2.442607 -0.61983,-1.260651 -1.67264,-3.133823 -2.33958,-4.162603 -0.6945,-1.071286 -1.21262,-2.031421 -1.21262,-2.247108 0,-0.377329 1.17882,-1.680334 1.52019,-1.680334 0.79154,0 5.2425,7.788387 5.64732,9.88179 0.0824,0.426364 0.0458,0.485207 -0.39831,0.640034 -0.59828,0.208561 -1.48365,0.213794 -1.83184,0.01083 z"
     id="path1148"
     transform="scale(12.499965)" />
  <path
     style="fill:#ffffff;stroke:none;stroke-width:0.0665943;stroke-miterlimit:0"
     d="m 123.84844,83.568676 c -0.84898,-0.418841 -0.88183,-0.615653 -0.68298,-4.091106 0.0984,-1.718929 0.13393,-3.941339 0.0791,-4.93869 l -0.0998,-1.813364 0.46248,-0.38915 c 0.59444,-0.50019 1.49446,-0.685557 1.80771,-0.372312 0.50034,0.50034 0.67722,7.575815 0.25423,10.169365 -0.12683,0.777638 -0.26667,1.472262 -0.31077,1.543611 -0.12764,0.206518 -0.99837,0.144034 -1.50995,-0.108354 z"
     id="path1150"
     transform="scale(12.499965)" />
  <path
     style="fill:#ffffff;stroke:none;stroke-width:0.0665943;stroke-miterlimit:0"
     d="m 114.9777,106.22322 c -0.70029,-0.61486 -1.02872,-1.25471 -0.9024,-1.75802 0.0542,-0.21592 0.46332,-0.87727 0.90917,-1.46967 0.86486,-1.14912 2.43532,-3.754934 3.42146,-5.677101 0.33055,-0.644297 0.73967,-1.245663 0.90916,-1.33637 0.37804,-0.20232 1.989,-0.07731 2.29692,0.178248 0.49198,0.408308 0.2093,1.305128 -1.20679,3.82861 -1.65897,2.956283 -4.3185,6.708453 -4.75494,6.708453 -0.0729,0 -0.37557,-0.21337 -0.67258,-0.47415 z"
     id="path1152"
     transform="scale(12.499965)" />
  <path
     style="fill:#ffffff;stroke:none;stroke-width:0.0665943;stroke-miterlimit:0"
     d="m 95.390029,121.43137 c -0.135441,-0.26191 -0.280504,-0.85489 -0.322363,-1.31772 -0.102089,-1.1288 0.115453,-1.35838 1.991548,-2.10179 1.539493,-0.61002 3.069226,-1.45069 5.355396,-2.94306 1.69301,-1.10517 2.06416,-1.11795 3.06147,-0.10541 0.89853,0.91224 0.86186,1.08853 -0.41783,2.00912 -2.51057,1.80606 -8.403399,4.93507 -9.294169,4.93507 -0.07029,0 -0.238611,-0.2143 -0.374052,-0.47621 z"
     id="path1154"
     transform="scale(12.499965)" />
  <path
     style="fill:#ffffff;stroke:none;stroke-width:0.0665943;stroke-miterlimit:0"
     d="m 74.620389,125.8229 c -3.794962,-0.21642 -4.21734,-0.45274 -3.754892,-2.10089 0.137376,-0.48961 0.405189,-1.0362 0.595138,-1.21465 0.341459,-0.32078 0.374045,-0.32248 2.88203,-0.15001 1.53007,0.10521 3.502704,0.13245 4.971123,0.0687 l 2.434458,-0.10578 0.37683,0.37683 c 0.420607,0.4206 0.700695,1.26 0.701963,2.1037 7.83e-4,0.51904 -0.03961,0.56982 -0.565916,0.71154 -1.436781,0.38689 -4.27787,0.50238 -7.640734,0.31061 z"
     id="path1156"
     transform="scale(12.499965)" />
  <path
     style="fill:#ffffff;stroke:none;stroke-width:0.0665943;stroke-miterlimit:0"
     d="m 56.281138,121.24144 c -0.830211,-0.3414 -1.231936,-0.56659 -3.647786,-2.04476 -1.959437,-1.19891 -4.134109,-2.73372 -4.51531,-3.18676 -0.208486,-0.24777 -0.379065,-0.60951 -0.379065,-0.80387 0,-0.73454 1.493254,-1.99389 2.164472,-1.82542 0.191407,0.048 1.362076,0.75863 2.601486,1.57908 2.370181,1.569 4.846789,3.03237 5.131994,3.03237 0.387715,0 1.095567,0.78341 1.095567,1.21251 0,0.63426 -0.580088,2.07807 -0.904727,2.25182 -0.396174,0.21202 -0.565497,0.18849 -1.546631,-0.21497 z"
     id="path1158"
     transform="scale(12.499965)" />
  <path
     style="fill:#ffffff;stroke:none;stroke-width:0.0665943;stroke-miterlimit:0"
     d="m 37.950228,105.53949 c -0.124242,-0.0474 -0.354713,-0.19595 -0.512159,-0.33009 -0.580343,-0.49444 -2.722104,-3.91623 -3.64031,-5.815945 -1.854299,-3.836446 -1.82769,-4.501199 0.194612,-4.861946 1.054799,-0.18816 1.371421,-0.0074 1.923602,1.098348 0.861689,1.725499 2.847699,5.276453 3.571418,6.385633 0.861518,1.32038 0.994229,1.74201 0.707286,2.24709 -0.457389,0.80511 -1.671161,1.49565 -2.244449,1.27691 z"
     id="path1160"
     transform="scale(12.499965)" />
  <path
     style="fill:#ffffff;stroke:none;stroke-width:0.0665943;stroke-miterlimit:0"
     d=""
     id="path1162"
     transform="scale(12.499965)" />
  <path
     style="fill:#ffffff;stroke:none;stroke-width:0.0665943;stroke-miterlimit:0"
     d="m 83.279426,75.222397 c -1.030645,-1.60612 -2.886028,-2.838419 -4.813214,-3.196817 -1.231328,-0.228989 -2.944078,0.01636 -4.40802,0.631442 -1.223632,0.514116 -1.322514,0.53436 -1.314728,0.26916 0.003,-0.103534 4.021594,-9.608034 8.93012,-21.121109 7.989789,-18.740257 8.961571,-20.938199 9.277618,-20.983802 0.31375,-0.04527 0.344216,-0.0034 0.273846,0.37649 -0.04355,0.235086 -1.628829,10.406083 -3.522843,22.602216 -2.963821,19.084942 -3.478198,22.174856 -3.691507,22.175282 -0.136314,3.01e-4 -0.465387,-0.338515 -0.731272,-0.752862 z"
     id="path1164"
     transform="scale(12.499965)" />
  <path
     style="fill:#ffffff;stroke:none;stroke-width:0.0665943;stroke-miterlimit:0"
     d="m 75.615041,82.807536 c -1.351413,-0.673438 -2.057606,-1.953179 -1.944058,-3.522965 0.128931,-1.782446 1.505725,-3.151055 3.300501,-3.280878 1.224726,-0.08859 2.057469,0.249553 2.887139,1.172346 1.344639,1.495563 1.34,3.468602 -0.01147,4.879162 -1.157039,1.207625 -2.750144,1.490829 -4.232108,0.752335 z"
     id="path1166"
     transform="scale(12.499965)" />
  <path
     style="fill:#ffffff;stroke:none;stroke-width:0.0665943;stroke-miterlimit:0"
     d="m 86.793381,95.631329 c -5.910508,-4.859513 -9.631123,-8.018542 -9.660283,-8.202166 -0.03356,-0.211327 0.05451,-0.319006 0.301192,-0.368273 0.19174,-0.03829 0.788503,-0.155067 1.32614,-0.259497 1.392589,-0.270496 2.825088,-1.0347 3.726863,-1.988194 0.843444,-0.891818 1.226062,-1.561724 1.632264,-2.857846 0.224462,-0.71622 0.327388,-0.864599 0.574558,-0.828278 0.230377,0.03385 1.709253,2.659579 6.295456,11.177506 3.29689,6.123293 5.994345,11.155089 5.994345,11.181759 0,0.41529 -2.105915,-1.20798 -10.190535,-7.855011 z"
     id="path1168"
     transform="scale(12.499965)" />
  <path
     style="fill:#448aff;stroke:none;stroke-width:0.0235446;stroke-miterlimit:0;fill-opacity:1"
     d="m 129.87488,103.17408 c -0.27174,-0.0245 -0.29835,-0.13342 -0.0924,-0.37822 0.0737,-0.0875 0.19521,-0.29304 0.27012,-0.45666 0.12809,-0.27979 0.2394,-0.36617 0.31475,-0.24426 0.0181,0.0293 0.13931,0.0533 0.26936,0.0533 0.13529,0 0.23645,0.0249 0.23645,0.0581 0,0.0319 -0.0838,0.15605 -0.18634,0.27579 -0.10248,0.11973 -0.23853,0.33318 -0.30233,0.47434 -0.0731,0.16166 -0.14696,0.25321 -0.19968,0.24735 -0.046,-0.005 -0.18551,-0.0185 -0.30997,-0.0297 z"
     id="path1255"
     transform="scale(12.499965)" />
  <path
     style="fill:#448aff;stroke:none;stroke-width:0.0235446;stroke-miterlimit:0;fill-opacity:1"
     d="m 124.75017,111.97166 c -0.0404,-0.0487 -0.15714,-0.0799 -0.29936,-0.0799 -0.28997,0 -0.3129,-0.11729 -0.0683,-0.34944 0.0906,-0.086 0.23473,-0.29415 0.32023,-0.46253 0.14871,-0.29284 0.26448,-0.37558 0.34445,-0.24618 0.0241,0.039 0.14648,0.0501 0.34923,0.0317 0.19303,-0.0175 0.31216,-0.008 0.31216,0.0254 0,0.0295 -0.10425,0.16964 -0.23167,0.31135 -0.12741,0.14172 -0.28914,0.39042 -0.35939,0.55267 -0.13152,0.30373 -0.24143,0.36864 -0.36733,0.21694 z"
     id="path1257"
     transform="scale(12.499965)" />
  <path
     style="fill:#448aff;stroke:none;stroke-width:0.0235446;stroke-miterlimit:0;fill-opacity:1"
     d="m 129.24927,114.25528 c -0.0752,-0.0581 -0.17302,-0.0736 -0.33277,-0.0526 -0.13469,0.0177 -0.22629,0.008 -0.22629,-0.0233 0,-0.0292 0.0742,-0.18444 0.16481,-0.34506 0.15966,-0.28289 0.26849,-0.35612 0.34509,-0.23218 0.0365,0.059 0.61112,0.0298 0.7939,-0.0403 0.13919,-0.0534 0.0898,0.11145 -0.0829,0.27668 -0.0899,0.086 -0.21166,0.23425 -0.27056,0.32942 -0.11716,0.18928 -0.22753,0.21391 -0.39126,0.0873 z"
     id="path1259"
     transform="scale(12.499965)" />
  <path
     style="fill:#ffffff;stroke:none;stroke-width:0.0235446;stroke-miterlimit:0"
     d="m 134.16101,105.72998 c -0.24753,-0.0259 -0.2508,-0.0875 -0.0226,-0.42661 0.0974,-0.14472 0.20832,-0.37475 0.24652,-0.51117 0.0744,-0.26557 0.15983,-0.30678 0.34531,-0.16648 0.0568,0.043 0.18264,0.0782 0.27953,0.0782 0.0969,0 0.17618,0.0273 0.17618,0.0606 0,0.0333 -0.098,0.16689 -0.21772,0.2968 -0.11975,0.12991 -0.26462,0.34223 -0.32195,0.47183 -0.069,0.15607 -0.13486,0.23262 -0.19492,0.22669 -0.0499,-0.005 -0.18054,-0.0183 -0.29035,-0.0298 z"
     id="path1261"
     transform="scale(12.499965)" />
  <path
     style="fill:#ffffff;stroke:none;stroke-width:0.0235446;stroke-miterlimit:0"
     d="m 86.937598,95.833576 c -6.110685,-5.024348 -10.406685,-8.592613 -10.416682,-8.652114 -0.0096,-0.05694 0.01374,-0.101293 0.05324,-0.101329 0.242289,-2.22e-4 1.590822,-0.18394 2.013656,-0.27433 3.210827,-0.686386 5.070061,-2.570024 5.718495,-5.793556 0.103369,-0.513875 0.140315,-0.616683 0.226294,-0.6297 0.08629,-0.01306 1.133689,1.901746 6.538375,11.953228 3.53959,6.582831 6.445134,11.986755 6.456762,12.008715 0.155099,0.29294 -1.522553,-1.05533 -10.590143,-8.510914 z"
     id="path1263"
     transform="scale(12.499965)" />
  <path
     style="fill:#448aff;stroke:none;stroke-width:0.0235446;stroke-miterlimit:0;fill-opacity:1"
     d="m 134.16101,105.72998 c -0.24832,-0.026 -0.25102,-0.0869 -0.0195,-0.43853 0.0991,-0.1505 0.21005,-0.38021 0.24652,-0.51046 0.0711,-0.2541 0.15888,-0.29391 0.34217,-0.15527 0.0568,0.043 0.19462,0.0782 0.30616,0.0782 0.11153,0 0.20279,0.024 0.20279,0.0534 0,0.0294 -0.0951,0.13932 -0.21139,0.24436 -0.11626,0.10504 -0.27481,0.32061 -0.35233,0.47906 -0.0915,0.187 -0.17144,0.28493 -0.22787,0.27912 -0.0478,-0.005 -0.17678,-0.0183 -0.28659,-0.0298 z"
     id="path1265"
     transform="scale(12.499965)" />
</svg>
